<svg width="115" height="75" viewBox="0 0 115 75" fill="none" xmlns="http://www.w3.org/2000/svg">
<path d="M113.874 36.7696C114.114 35.9691 114.275 35.1523 114.349 34.3251C114.425 33.502 114.405 32.69 114.321 31.9014C114.235 31.1049 114.072 30.3302 113.85 29.5815L113.84 29.5474C113.642 28.9688 113.389 28.4135 113.086 27.8769C112.796 27.3307 112.46 26.7988 112.088 26.2735L112.055 26.2303C111.614 25.6763 111.111 25.1207 110.551 24.5626C109.959 23.9897 109.287 23.4058 108.492 22.802L108.432 22.7603C107.954 22.4505 107.439 22.1499 106.891 21.8695L106.857 21.8523C106.814 21.8324 106.775 21.8147 106.74 21.7992C106.227 21.5692 105.688 21.3478 105.121 21.1388C104.51 20.9142 103.886 20.7172 103.272 20.5446C102.656 20.3744 102.064 20.228 101.515 20.0983L101.492 20.0928C100.643 19.9131 99.9697 19.7733 99.4748 19.6686L99.4746 19.6685C99.0347 19.5684 98.7255 19.4804 98.5486 19.4081C98.143 19.1745 97.8074 18.9557 97.5248 18.7244C97.2361 18.4114 96.9056 18.0273 96.5058 17.6034L96.4804 17.5776C95.9662 17.0733 95.3451 16.5632 94.6143 16.0485L94.5919 16.0336C93.8078 15.5126 92.9854 15.0053 92.1344 14.5116C91.4076 14.0978 90.6792 13.7009 89.9434 13.3147C89.0096 12.8342 88.0729 12.3794 87.1295 11.951C87.0384 11.9088 86.9468 11.8682 86.8578 11.8283C86.0047 11.4458 85.1502 11.0864 84.3008 10.7476C83.3626 10.3727 82.4317 10.0188 81.5151 9.67332C80.5607 9.33011 79.6111 9.01925 78.6517 8.73681C77.2117 8.31254 75.7681 7.94659 74.3382 7.56131C72.9357 7.16915 71.5364 6.71856 70.1485 6.23377C69.4658 5.96125 68.7886 5.68444 68.1183 5.40536C67.841 5.2889 67.5637 5.1691 67.2895 5.04612C66.9118 4.87675 66.5376 4.70164 66.1682 4.52044C65.5151 4.19849 64.8578 3.87667 64.1932 3.56987C64.0914 3.52309 63.9881 3.47623 63.8864 3.4306C63.3133 3.17363 62.7347 2.93565 62.1468 2.72149L62.1244 2.7134C61.413 2.47352 60.6874 2.27976 59.9466 2.12868L59.9179 2.12342C59.1504 1.99057 58.374 1.9294 57.5913 1.92451L57.5456 1.92519C56.7898 1.95491 56.0448 1.99546 55.3138 2.01763C54.6234 2.03914 53.9393 2.01685 53.2612 1.94977C52.6239 1.82899 51.9571 1.63564 51.2419 1.35784C50.4653 1.05792 49.6307 0.726605 48.7604 0.438092L48.7057 0.42147C47.7853 0.174008 46.8615 0.032892 45.9529 0.00486421C45.0407 -0.0231064 44.1584 0.0696768 43.3094 0.260741L43.2153 0.28688C42.3869 0.562024 41.5899 0.92556 40.8498 1.38348C40.112 1.83909 39.441 2.37943 38.8306 2.9961L38.793 3.03601C38.2336 3.67022 37.7354 4.37252 37.3039 5.14341L37.2884 5.17231C37.2322 5.28128 37.178 5.39089 37.1256 5.50103C36.8137 6.15745 36.5528 6.85458 36.3454 7.58616L36.3348 7.62744C35.9948 9.07948 35.9334 10.4115 36.1799 11.6927L36.1921 11.7476C36.5176 13.0263 37.1644 14.2437 38.1535 15.4253L38.1813 15.4573C38.5109 15.8175 38.8726 16.1596 39.2626 16.4769C39.1527 16.5287 39.0443 16.5824 38.9388 16.6402C37.5252 17.4066 36.4168 18.636 35.7733 19.9805C35.6846 20.167 35.6042 20.3575 35.5344 20.5513C35.1074 21.8147 35.182 22.8368 34.8555 23.4486C34.7727 23.6214 34.6715 23.7765 34.5226 23.9343C33.9043 24.6209 32.4293 25.142 31.1538 25.6307C28.0589 26.8621 25.0802 28.5897 23.1069 31.4217C22.6968 32.015 22.3624 32.6401 22.0503 33.2547C21.9866 33.3391 21.9421 33.4325 21.9115 33.5292C21.7161 33.9189 21.527 34.3017 21.3309 34.6663C20.7836 35.694 20.1979 36.5534 19.4007 37.1052C18.4731 37.7557 17.1833 38.3417 15.9059 39.0361C14.6332 39.7349 13.3417 40.5501 12.4711 41.8213C11.9462 42.5941 11.4204 43.5085 10.9549 44.4865C10.7776 44.8595 10.6088 45.2429 10.4531 45.6326C10.1715 46.3336 9.93188 47.0509 9.75824 47.761C9.65592 48.1835 9.57962 48.6017 9.52885 49.0145C9.49282 49.1299 9.48036 49.2468 9.49041 49.3617C9.47707 49.5243 9.46788 49.6859 9.4649 49.8457C9.44694 50.9405 9.48553 51.9716 9.44402 52.8608C9.44156 52.9193 9.43754 52.9752 9.43408 53.0324C9.41953 53.1086 9.41349 53.1854 9.41814 53.2619C9.36294 53.9439 9.24316 54.5267 9.00768 55.0188C8.99847 55.0382 8.98693 55.0625 8.97199 55.0924C8.79269 55.4436 8.54715 55.739 8.13544 56.0195C7.73826 56.2245 7.16193 56.3936 6.47808 56.5405L6.43063 56.5521C5.66305 56.7595 4.81872 57.0042 3.98279 57.3717L3.94022 57.3915C3.09665 57.8116 2.304 58.3629 1.6276 59.0643L1.60769 59.0863C1.17959 59.5588 0.825097 60.0783 0.557533 60.6412C0.421306 60.9278 0.306947 61.226 0.216452 61.5361L0.207094 61.5716C-0.0923716 62.7661 -0.0621673 63.788 0.265995 64.6375C0.562877 65.5101 1.17397 66.1635 1.84778 66.6256C2.1656 66.844 2.50529 67.0281 2.85629 67.186C3.27009 67.371 3.69905 67.5189 4.12707 67.6361C4.21466 67.6588 4.30098 67.6744 4.38823 67.6942C4.37844 67.8652 4.38392 68.0329 4.39973 68.197C4.44308 68.5855 4.54526 68.9698 4.67834 69.3489C4.82265 69.7546 5.00568 70.1641 5.21972 70.5387C5.43879 70.9145 5.66628 71.2526 6.01213 71.5439C6.26174 71.7455 6.52345 71.9004 6.79016 72.02C7.36997 72.2788 7.96924 72.3785 8.53884 72.4132L8.5593 72.4144C9.38228 72.4463 10.1656 72.3573 10.7772 72.3184C11.9507 72.2402 13.0661 72.0367 14.1343 71.8332C14.8996 71.687 15.6473 71.5403 16.3898 71.402C16.6568 72.7444 17.5031 73.8891 18.7435 74.4536C18.752 74.4576 18.7609 74.4616 18.7697 74.4656C19.885 74.9656 21.2963 74.8981 22.5766 74.144C23.3317 73.7088 23.8791 73.0839 24.2469 72.4058C24.294 72.3185 24.3373 72.2328 24.3778 72.1475C24.6658 71.5404 24.8358 70.8983 24.9411 70.2594C24.9557 70.1733 24.9668 70.0872 24.9796 70.0011C25.9236 69.8029 26.8636 69.5919 27.7976 69.3693C28.9081 69.1053 30.016 68.8352 31.1219 68.5662C31.8591 68.3869 32.5966 68.2076 33.329 68.0287C34.0326 67.8581 34.6969 67.6964 35.3174 67.5454C35.8055 67.4249 36.273 67.3107 36.7348 67.1995C37.0781 67.7556 37.4393 68.3153 37.8355 68.856L37.8557 68.8828C38.5205 69.7262 39.3048 70.4873 40.2743 71.0892L40.3066 71.1086C40.5315 71.2365 40.7651 71.3554 41.0083 71.4644C41.8294 71.8326 42.7599 72.0868 43.8078 72.1989C45.3627 72.3772 46.7233 71.9346 47.7018 71.1064C48.4339 70.4953 48.9723 69.705 49.3839 68.8416C49.527 68.5386 49.6548 68.2273 49.7692 67.9117C49.9893 67.2822 50.1577 66.6404 50.2904 66.0034C50.4231 65.3686 50.522 64.7392 50.5984 64.1388C50.6153 64.0123 50.6311 63.8877 50.6457 63.7641C50.6914 63.7645 50.7373 63.7619 50.7835 63.7556C51.6518 63.6395 52.5481 63.5312 53.4677 63.3705C58.4007 62.5065 63.2342 60.9516 67.8543 59.4264C72.2612 57.9707 76.6884 56.4036 81.0393 54.9405C84.2607 53.8546 87.6797 53.0117 90.9817 51.5995C93.0467 50.7046 95.4152 50.3754 97.8014 49.3112C99.0012 48.769 99.7833 47.9305 100.446 47.1962C101.04 46.5312 101.553 45.9501 102.151 45.5514C103.406 45.7536 104.703 45.7546 106.004 45.4345C107.188 45.1453 108.211 44.6745 109.094 44.0659C109.335 43.9383 109.559 43.8038 109.764 43.6551L109.806 43.6218C110.064 43.4107 110.295 43.1675 110.477 42.8802C110.94 42.3962 111.36 41.8639 111.74 41.2857C112.175 40.6098 112.564 39.8851 112.929 39.119L112.93 39.1192C112.995 38.9909 113.06 38.8615 113.122 38.7307C113.427 38.0873 113.673 37.4308 113.874 36.7696ZM39.6431 14.2337C38.8164 13.2384 38.3329 12.3067 38.0769 11.332C37.893 10.3456 37.9286 9.31469 38.2165 8.06641C38.3955 7.43682 38.6198 6.84274 38.8829 6.28901C38.9256 6.19936 38.9688 6.11084 39.0131 6.02478C39.3764 5.37921 39.7878 4.79961 40.2471 4.27589C40.7549 3.76689 41.2977 3.33147 41.8927 2.96437C42.4804 2.6011 43.1224 2.30425 43.7982 2.0765C44.48 1.92656 45.1745 1.85662 45.8976 1.87833C46.6325 1.90081 47.3951 2.01451 48.1687 2.22072C48.4903 2.32793 48.8127 2.44512 49.1348 2.56498C48.9321 2.73962 48.7375 2.92295 48.5579 3.11613C48.1005 3.61953 47.6967 4.15736 47.366 4.64946C47.0141 5.1394 46.6869 5.68391 46.4009 6.26526C46.3804 6.30692 46.3599 6.35024 46.3407 6.39052C46.0746 6.95031 45.8536 7.54609 45.6864 8.15698C45.3301 9.47231 45.2093 10.8574 45.4864 12.1316C45.5528 12.4323 45.7612 12.6684 46.0287 12.7884C46.2117 12.8704 46.4226 12.898 46.6348 12.8551C47.1565 12.748 47.4897 12.2503 47.3779 11.7439C47.1805 10.8676 47.2551 9.73211 47.5559 8.64163C47.6945 8.13485 47.8791 7.63713 48.0973 7.17817C48.1147 7.14138 48.1309 7.10852 48.1453 7.07967C48.3913 6.57895 48.6726 6.11357 48.9657 5.70662L48.9848 5.67958C49.2715 5.2508 49.6313 4.77428 50.0039 4.36453C50.1673 4.18838 50.3471 4.01845 50.5284 3.87203C50.6898 3.74982 50.8476 3.65248 50.9857 3.58589C51.0946 3.5463 51.1833 3.52983 51.2697 3.52453C51.4038 3.52507 51.5489 3.53815 51.7084 3.56701C51.8008 3.58387 51.8918 3.58313 51.9809 3.57452C52.3036 3.66185 52.6239 3.73881 52.941 3.79767L53.0218 3.80903C53.8044 3.88937 54.5912 3.91559 55.3803 3.8912C56.1308 3.86786 56.8699 3.82837 57.5947 3.79916C58.2738 3.80366 58.9311 3.85633 59.569 3.9664C60.1477 4.0846 60.7112 4.23276 61.2627 4.40975C61.1203 4.53374 60.9787 4.66345 60.8374 4.80464C60.4102 5.2399 60.0177 5.74212 59.6719 6.27573L59.6467 6.317C59.5061 6.56186 59.3773 6.8089 59.2604 7.05479C59.1181 7.35424 58.9927 7.65252 58.8846 7.94133L58.8792 7.95699C58.701 8.45958 58.5585 8.9338 58.4553 9.34316C58.3544 9.73914 58.2806 10.0595 58.2629 10.3891C58.2458 10.78 58.4791 11.1267 58.8251 11.2818C58.936 11.3316 59.0583 11.3615 59.188 11.3674C59.7215 11.3908 60.1724 10.9905 60.1955 10.4735C60.194 10.42 60.2418 10.1377 60.3324 9.80039C60.4205 9.4498 60.547 9.02713 60.7044 8.58049C60.7945 8.34042 60.8993 8.09166 61.0177 7.84274C61.1119 7.64435 61.2144 7.44653 61.3244 7.25458C61.6048 6.82413 61.9244 6.41943 62.2364 6.10199C62.5564 5.77685 62.865 5.54149 63.0496 5.44774C63.0981 5.42257 63.1356 5.40748 63.1602 5.3993C63.3379 5.45583 63.5225 5.45923 63.6944 5.41763C64.2251 5.66721 64.7575 5.9257 65.2973 6.19178C65.6892 6.38359 66.083 6.56835 66.4811 6.74689C66.7708 6.87678 67.0623 7.00328 67.3566 7.12649C68.0441 7.41242 68.7358 7.6949 69.4336 7.97364L69.4745 7.98888C70.9004 8.48727 72.3473 8.9536 73.8159 9.36498C75.2741 9.75725 76.7027 10.1196 78.0934 10.5299C78.4282 10.6286 78.76 10.7345 79.0921 10.8402C78.9858 10.8936 78.8776 10.9437 78.7734 11.0015L78.7188 11.0341C78.3263 11.2852 77.9564 11.571 77.6093 11.8843C77.2611 12.1976 76.9364 12.5368 76.631 12.8956L76.5978 12.9366C76.3159 13.3074 76.0574 13.6898 75.8251 14.0797C75.6343 14.3989 75.4604 14.7237 75.3055 15.0495C75.2706 15.1231 75.2378 15.1945 75.2061 15.2648L75.1875 15.3113C74.8779 16.1187 74.7022 16.9306 74.6179 17.7004C74.5728 18.111 74.8085 18.4882 75.1752 18.6526C75.2685 18.6944 75.3697 18.7223 75.4776 18.7336C76.0083 18.7897 76.4851 18.4173 76.541 17.9029C76.6093 17.2748 76.7517 16.622 76.9924 15.9898C77.0159 15.9373 77.0392 15.8865 77.0625 15.8373C77.1923 15.5642 77.3379 15.2916 77.499 15.0235C77.6922 14.6997 77.9063 14.3819 78.1393 14.0728C78.3927 13.7768 78.656 13.5033 78.9278 13.2583C79.1963 13.0163 79.4752 12.8009 79.7625 12.6148C80.3916 12.2717 81.023 12.037 81.6921 11.9182C81.7767 11.9035 81.8543 11.8754 81.928 11.8418C82.4725 12.0495 83.0194 12.2608 83.5678 12.4802C84.3953 12.8103 85.2244 13.1586 86.0496 13.5286C86.1386 13.5685 86.225 13.6073 86.3082 13.646C86.3698 13.6742 86.431 13.7044 86.4926 13.7326C86.1517 13.8292 85.7579 13.9797 85.3758 14.2623C84.6905 14.7635 84.343 15.4068 84.0916 15.9381C84.0066 16.1181 83.9291 16.291 83.8506 16.4563C83.6275 16.9255 83.8395 17.483 84.325 17.7007C84.81 17.9182 85.3848 17.7135 85.6078 17.2443L85.6073 17.2441C85.6975 17.0543 85.7758 16.8803 85.8491 16.7262C86.0775 16.2493 86.2411 15.9836 86.5472 15.7565C86.7489 15.6097 86.9549 15.5441 87.3172 15.4628C87.6685 15.3802 88.1718 15.3014 88.7147 14.9991C88.7731 14.9665 88.8263 14.9288 88.8746 14.8869C88.9269 14.9137 88.9806 14.9389 89.033 14.9661C89.7433 15.3391 90.4522 15.7254 91.1512 16.1227C91.9587 16.5919 92.7425 17.0749 93.4844 17.5667C94.1338 18.0242 94.6687 18.4658 95.0885 18.8758C95.4679 19.2775 95.7969 19.6612 96.1295 20.0205L96.2161 20.1025C96.6482 20.465 97.1154 20.7623 97.6165 21.0486L97.7078 21.0946C98.1027 21.2666 98.5159 21.3711 99.0313 21.4915L99.0489 21.4957C99.5503 21.6019 100.222 21.7413 101.071 21.9212C101.602 22.0466 102.167 22.1871 102.743 22.3458C103.31 22.5054 103.885 22.6875 104.439 22.891C104.961 23.0834 105.458 23.2874 105.932 23.5C105.963 23.514 105.99 23.5264 106.015 23.5379C106.48 23.7777 106.919 24.033 107.328 24.2964C108.051 24.8468 108.656 25.3731 109.177 25.8772C109.448 26.1474 109.703 26.4178 109.943 26.6863C109.914 26.6754 109.885 26.666 109.856 26.6548C109.621 26.5366 109.386 26.4243 109.155 26.3207C108.489 26.0232 107.873 25.7929 107.361 25.6663L107.343 25.6624C106.801 25.5406 106.28 25.4498 105.771 25.3877L105.746 25.3852C105.234 25.3359 104.73 25.3122 104.232 25.3204C103.259 25.3369 102.358 25.4454 101.513 25.6263L101.471 25.6361C100.696 25.8377 99.9704 26.0961 99.2837 26.3975L99.2451 26.4149C98.6072 26.7283 97.9975 27.0662 97.3776 27.3922C96.8591 27.6481 96.3943 27.9843 95.9804 28.3724C95.4403 28.8585 94.9916 29.4329 94.6282 30.0581C94.5222 30.2394 94.4242 30.4271 94.3329 30.6181C94.1876 30.9249 94.0613 31.2409 93.9533 31.5628C93.6936 32.337 93.5323 33.1407 93.4556 33.9272C93.3786 34.7178 93.3929 35.4971 93.5065 36.2265C93.5819 36.69 93.6619 37.1436 93.7551 37.593C93.8816 38.2215 94.0446 38.85 94.2633 39.4644C93.7397 39.0389 93.2209 38.5995 92.6872 38.1345C92.3196 37.8118 91.8881 37.4505 91.3872 37.0539C90.9122 36.6773 90.3784 36.2682 89.783 35.8292C89.3364 35.3117 89.1353 34.9365 88.9913 34.5363C88.8923 34.1804 88.7905 33.8259 88.6945 33.479C88.6122 33.1621 88.5526 32.8428 88.5285 32.5294C88.5424 32.1893 88.5834 31.8416 88.6458 31.4911C88.7496 30.9484 88.9061 30.3937 89.1101 29.8467C89.2804 29.387 89.476 28.9306 89.69 28.4805C89.7358 28.3841 89.783 28.2872 89.8307 28.1905C90.1023 27.6431 90.3897 27.1152 90.6951 26.6157C90.9918 26.1166 91.3089 25.6565 91.6454 25.2469C91.9777 24.8431 92.3338 24.493 92.7153 24.1945C93.0804 23.915 93.4826 23.6818 93.9192 23.5013C94.4097 23.2981 94.6371 22.7479 94.4266 22.2721C94.2151 21.7959 93.647 21.574 93.1563 21.7776L93.1557 21.7768C92.5595 22.0236 92.0077 22.3445 91.5065 22.7285C90.9978 23.1252 90.5432 23.5762 90.1318 24.0765C89.7244 24.5714 89.3562 25.1083 89.0239 25.6675C88.692 26.211 88.3788 26.7861 88.0871 27.3751C88.0357 27.4797 87.9839 27.5856 87.933 27.6927C87.6989 28.1852 87.4817 28.6906 87.2899 29.2066C87.0521 29.8457 86.8683 30.4983 86.7418 31.1551C86.661 31.6081 86.6096 32.0551 86.5934 32.5043L86.595 32.5969C86.5951 32.6014 86.5957 32.6057 86.5964 32.6099C86.5358 32.5966 86.4752 32.583 86.4146 32.5722L86.3718 32.566C85.9428 32.5081 85.5534 32.3965 85.181 32.2295C85.0516 32.1714 84.9231 32.1059 84.796 32.0331C84.4295 31.6773 84.0637 31.2084 83.6969 30.6451C83.6952 30.6186 83.6969 30.5923 83.6922 30.5653C83.6033 30.0113 83.5145 29.3986 83.4951 28.8063C83.483 28.2221 83.5402 27.6582 83.6919 27.2225C83.8021 26.933 83.9249 26.6457 84.0595 26.3625C84.3013 25.8537 84.5811 25.3609 84.8953 24.9029C85.3685 24.2015 85.9182 23.5964 86.5231 23.1024C86.9306 22.7693 86.9816 22.1783 86.6367 21.7819C86.2917 21.3859 85.6814 21.3351 85.2743 21.6684L85.2738 21.6682C84.5171 22.287 83.846 23.0296 83.2795 23.8685C82.909 24.4091 82.5831 24.985 82.3027 25.5748C82.1466 25.9034 82.0038 26.2368 81.8756 26.5728L81.8677 26.5944C81.7935 26.8072 81.737 27.0217 81.6928 27.2363C81.1163 26.6052 80.474 26.0511 79.7415 25.6224C79.4702 25.4643 79.1934 25.3235 78.9145 25.1984C78.4237 24.9784 77.9246 24.806 77.4285 24.6694C76.6998 24.4686 75.9924 24.3031 75.3115 24.154C74.682 23.9912 74.0992 23.8209 73.5767 23.6142C73.4949 23.5818 73.4116 23.547 73.3281 23.5096C72.7819 23.2655 72.2309 22.9229 71.659 22.5442C71.3135 22.3053 70.9575 22.059 70.5852 21.8166C70.4433 21.6522 70.3143 21.476 70.2059 21.2926C70.0949 21.1044 70.002 20.908 69.9299 20.7135C69.8225 20.3094 69.768 19.9592 69.7484 19.686C69.7366 19.2214 69.8042 18.8766 69.8859 18.5359C69.9592 18.271 70.0809 17.8584 70.2484 17.4402C70.3705 17.2227 70.5093 17.0104 70.6407 16.8433C70.7792 16.6692 70.9202 16.5463 70.9647 16.5214C71.4129 16.2404 71.5388 15.6604 71.2482 15.2256C70.9565 14.7911 70.3573 14.6671 69.9099 14.9484C69.5798 15.1589 69.3384 15.4156 69.1099 15.6944C68.8807 15.9857 68.6854 16.2922 68.5155 16.6011L68.4709 16.6949C68.2485 17.2384 68.1017 17.7432 68.0171 18.0476L68.0101 18.0747C67.9094 18.4824 67.7935 19.0456 67.8149 19.7448L67.8163 19.7787C67.8316 20.0039 67.8627 20.2498 67.9097 20.5118C67.5327 20.3993 67.1602 20.3099 66.7949 20.2311L66.7519 20.2232C65.8392 20.0687 64.921 19.9914 63.9199 19.892C63.3279 19.8296 62.7406 19.7787 62.1656 19.7217C61.6012 19.6658 61.0495 19.5941 60.5081 19.4977C59.955 19.3957 59.4011 19.2826 58.847 19.1466C58.2919 19.0104 57.7369 18.8516 57.1725 18.6562C56.5586 18.4447 55.929 18.2274 55.2903 18.017C54.7224 16.8674 54.5838 15.2401 54.4828 13.7719C54.387 12.5942 54.7003 10.7664 55.3221 9.47914C55.6015 8.88521 55.9444 8.41048 56.265 8.14549C56.6686 7.80669 56.7112 7.21478 56.3609 6.8238C56.011 6.43189 55.4002 6.38879 54.9975 6.72713L54.997 6.72691C54.3785 7.24957 53.9255 7.93683 53.5646 8.69106C52.791 10.3394 52.4459 12.3272 52.5535 13.9011C52.6312 14.8798 52.7012 16.0213 52.9707 17.1565C52.947 17.1665 52.9223 17.173 52.899 17.1846C52.8624 17.2046 52.7976 17.2303 52.7215 17.2578C51.8336 17.0345 50.9366 16.8577 50.0405 16.7638L46.7806 16.274C45.8721 16.1105 45.0962 16.1922 44.447 16.2387C44.134 16.2618 43.8521 16.2775 43.5778 16.2735C42.8756 16.2888 42.4797 16.1333 41.9662 15.9282C41.9133 15.9065 41.8583 15.8877 41.8065 15.8645C41.5249 15.7382 41.2595 15.5896 41.0054 15.4194C40.513 15.0899 40.0581 14.685 39.6431 14.2337ZM49.7405 23.8498C49.9717 23.9534 50.202 24.0443 50.4307 24.1242C51.2018 24.4011 51.9875 24.5633 52.7605 24.6201C53.1485 24.6486 53.5352 24.6494 53.9186 24.625C54.2913 24.6023 54.669 24.5598 55.0467 24.5014C55.7744 24.3814 56.3755 24.1238 56.9083 23.8557C57.4568 23.5785 57.9212 23.2935 58.3861 23.0738L58.4372 23.0478C58.9676 22.7498 59.5531 22.2795 60.1377 21.8711C60.3919 21.706 60.633 21.5878 60.7931 21.5384C60.8731 21.5127 60.9311 21.5043 60.9531 21.5034C60.9534 21.5033 60.9534 21.5033 60.9537 21.5034C61.1224 21.5573 61.295 21.5601 61.4576 21.5262C61.6294 21.5468 61.8015 21.5691 61.9733 21.586C62.2907 21.6176 62.6053 21.6471 62.9178 21.6768C61.6723 22.7061 60.3714 23.6778 58.9825 24.4042C57.0263 25.4264 54.9356 26.0327 52.5776 25.875C51.9185 25.8315 51.2104 25.6645 50.616 25.3966C50.0718 25.1539 49.6291 24.8295 49.3583 24.4806C49.1209 24.1697 48.9932 23.8599 48.9873 23.462C49.2366 23.6063 49.4881 23.7366 49.7405 23.8498ZM49.5652 21.5952C49.7511 21.2342 49.9667 20.8826 50.1967 20.5761C50.2959 20.463 50.4674 20.3173 50.7038 20.1533C50.9381 19.9888 51.2383 19.8122 51.5813 19.6389C51.9484 19.4893 52.3214 19.3546 52.6657 19.2376C52.6976 19.2289 52.7283 19.2201 52.76 19.2118C54.007 19.5534 55.2803 19.9885 56.5266 20.4211C57.1002 20.6198 57.6617 20.7803 58.2143 20.9199C57.9155 21.1359 57.6586 21.3173 57.5023 21.4043C56.9307 21.6796 56.4574 21.9699 56.0141 22.1921C55.5565 22.4222 55.1621 22.5803 54.7279 22.652C54.4128 22.7003 54.0959 22.7358 53.7892 22.7548C53.4901 22.7735 53.1966 22.7727 52.9008 22.7511C52.3062 22.7076 51.7007 22.5833 51.0912 22.3642C50.903 22.2985 50.7242 22.2282 50.5486 22.1494C50.2139 21.9994 49.8858 21.8166 49.5652 21.5952ZM24.7117 32.4721C26.3676 30.0867 28.9703 28.5253 31.892 27.3645C32.4959 27.1147 33.2448 26.8681 33.9911 26.5211C34.1229 26.5678 34.2658 26.5903 34.4146 26.5765C35.2139 26.5011 35.9617 26.3327 36.6121 26.232C37.2576 26.1429 37.9104 26.1297 38.5001 26.1989C38.9941 26.2555 39.4398 26.3672 39.8166 26.5237C39.8177 26.5276 39.8176 26.5315 39.8188 26.5352C39.9878 27.1381 39.9198 27.5457 39.7125 28.0013C39.3746 28.745 38.4862 29.5186 37.6041 30.3431C36.8644 31.0431 36.2259 31.4053 35.5005 31.6484C34.953 31.8303 34.3371 31.9363 33.6052 32.0146L34.1439 30.8811C34.3674 30.4109 34.1551 29.8542 33.6696 29.6365C33.1846 29.419 32.6107 29.6233 32.3873 30.0934L32.3867 30.0931C32.1969 30.4925 32.0073 30.8914 31.8178 31.2917C31.6669 31.609 31.7187 31.9639 31.9156 32.229C31.0587 32.4176 30.2979 32.7316 29.5873 32.9948C28.6232 33.3588 27.7641 33.6335 26.8731 33.6037C26.5448 33.5986 26.1562 33.4891 25.6405 33.3812L25.6406 33.381C25.2392 33.2926 24.8003 33.1746 24.3025 33.1222C24.4347 32.8931 24.57 32.6744 24.7117 32.4721ZM23.0484 35.5316C23.1446 35.351 23.2374 35.1706 23.3287 34.9912C23.4216 34.9908 23.5008 34.9825 23.5533 34.9727L23.5809 34.9684C23.7048 34.9443 23.7525 34.934 23.7662 34.932C23.769 34.9324 23.7757 34.9334 23.79 34.9376L24.0059 34.9754C24.303 34.9922 24.717 35.0934 25.2074 35.2065L25.232 35.2116C25.6251 35.2853 26.1456 35.4532 26.819 35.4775C28.1609 35.5159 29.294 35.1144 30.2897 34.7429C31.2901 34.3632 32.1695 34.0166 33.021 33.9518C34.1345 33.8604 35.1406 33.7483 36.1297 33.4226C37.1183 33.0984 38.0573 32.5469 38.9618 31.6819C39.7561 30.9101 40.848 30.065 41.4695 28.7891C41.506 28.7143 41.5381 28.6358 41.5699 28.5574C41.5798 28.6107 41.5935 28.6594 41.6008 28.7158C41.6737 29.2635 41.6128 29.7506 41.4434 30.2379C41.398 30.3664 41.3448 30.4957 41.2842 30.6233C41.114 30.9814 40.8816 31.3393 40.5965 31.6897C40.1969 32.1854 39.7092 32.652 39.1704 33.0737C38.6317 33.4957 38.0409 33.8762 37.4393 34.2081C36.7673 34.5774 36.1729 34.753 35.4932 34.8979C34.8198 35.042 34.063 35.1411 33.1736 35.3535C32.4122 35.5307 31.7594 35.7883 31.1661 36.0002C30.5672 36.217 30.0303 36.3901 29.4733 36.4635C28.8142 36.5509 28.1533 36.5549 27.4851 36.5208C26.8445 36.4852 26.2091 36.4037 25.5717 36.3292C25.0344 36.2645 24.4241 36.2304 23.8716 36.1439C23.4753 36.0832 23.1101 35.9917 22.8553 35.882C22.9208 35.7654 22.9859 35.6482 23.0484 35.5316ZM11.3985 49.8822C11.4009 49.7499 11.4091 49.6118 11.4219 49.4691C11.442 49.4244 11.4618 49.3767 11.4821 49.3339C11.5976 49.0909 11.7187 48.8759 11.8481 48.6837C12.0453 48.3928 12.2538 48.1396 12.4751 47.918C12.9175 47.4758 13.4089 47.1538 14.0225 46.8928C14.3329 46.7611 14.6782 46.6439 15.0651 46.5355C15.4558 46.4243 15.88 46.3244 16.3421 46.2338C16.7286 46.1597 17.1636 46.1271 17.6021 46.1424C18.0322 46.1589 18.472 46.2265 18.8797 46.3392C19.0937 46.3999 19.3074 46.4773 19.5069 46.5668C19.6337 46.6237 19.7515 46.6858 19.864 46.7504C18.9173 48.6287 17.8879 49.9291 16.0054 50.7068C15.0107 51.1126 14.1064 51.3496 13.0487 51.3939C12.5819 51.4171 12.0255 51.3848 11.3973 51.5025C11.3954 50.9649 11.3892 50.4227 11.3985 49.8822ZM21.1172 48.484C21.1406 48.7524 21.1155 49.0565 21.008 49.415C20.8883 49.8054 20.749 50.1627 20.5932 50.4906C20.5765 50.5267 20.5563 50.5668 20.5339 50.6138C20.3583 50.9657 20.1599 51.2872 19.9421 51.5788C19.7254 51.8692 19.4905 52.1288 19.2331 52.369C18.9753 52.6084 18.6945 52.8298 18.3873 53.0397C18.0831 53.2465 17.752 53.4406 17.394 53.6268C17.0424 53.8076 16.6611 53.9817 16.255 54.1505C15.8363 54.3242 15.3782 54.4817 14.9269 54.5847C14.4765 54.6738 14.0066 54.7252 13.5314 54.7347C13.0228 54.7473 12.4992 54.7323 11.9708 54.6934C11.6991 54.6745 11.43 54.6527 11.1665 54.6252C11.2487 54.2673 11.3012 53.906 11.3344 53.5439C11.4432 53.4334 11.5483 53.3983 11.7726 53.3417C12.074 53.2763 12.5576 53.2863 13.1346 53.2666C14.4564 53.2143 15.6269 52.8995 16.7616 52.4338C18.8326 51.5941 20.1428 50.1574 21.1172 48.484ZM13.7561 69.9941C12.7006 70.1961 11.666 70.381 10.6401 70.4484C9.9735 70.4938 9.26802 70.567 8.64742 70.5422C8.23368 70.5177 7.87338 70.4437 7.59859 70.319C7.4687 70.2608 7.35594 70.1929 7.25491 70.1114C7.22335 70.0919 7.05439 69.894 6.91092 69.6344C6.76148 69.3741 6.61503 69.0496 6.50759 68.7451C6.40875 68.4669 6.344 68.1989 6.32305 68.0051C6.31919 67.9688 6.31787 67.9389 6.31674 67.909C6.38859 67.9074 6.46359 67.9108 6.53362 67.9069C7.2926 67.8594 8.02281 67.7289 8.72786 67.552C9.43495 67.375 10.1123 67.149 10.7651 66.9161C11.4149 66.6822 12.0443 66.4433 12.6556 66.2292C13.2681 66.0135 13.8623 65.8244 14.4379 65.6854C15.077 65.5332 15.4246 65.596 15.6222 65.6846C15.8027 65.7678 15.9378 65.8938 16.0786 66.1558C16.4686 66.8336 16.4724 68.32 16.3735 69.4968C15.4924 69.656 14.6213 69.8287 13.7561 69.9941ZM34.8383 65.7281C34.2211 65.8783 33.5573 66.0402 32.8523 66.2113C32.1207 66.3897 31.3837 66.5685 30.6461 66.7481C29.5401 67.0172 28.4355 67.2868 27.3313 67.5497C26.6098 67.7211 25.8889 67.8836 25.1678 68.0405C25.2034 67.4551 25.2284 66.9204 25.2652 66.5019C25.3237 65.8235 25.4125 65.219 25.6626 64.697C25.7193 64.5778 25.7826 64.4645 25.8555 64.3539L25.8784 64.3178C26.1357 63.8934 26.467 63.5975 26.9116 63.31C27.3495 63.0164 27.8819 62.7627 28.4725 62.4714C28.9489 62.2368 29.4801 62.0327 30.0138 61.9187C30.5212 61.8323 31.0763 61.8386 31.6137 61.9525C32.0234 62.0386 32.4132 62.1593 32.7705 62.3195C32.9341 62.3929 33.0887 62.4727 33.2342 62.5608L33.2513 62.5709C33.7326 62.8497 34.1386 63.2096 34.4621 63.6962L34.4754 63.7174C34.8587 64.265 35.2248 64.8161 35.5888 65.3742C35.6197 65.4222 35.6508 65.4728 35.6814 65.5213C35.4044 65.5889 35.1246 65.6576 34.8383 65.7281ZM46.4397 69.6825C45.8161 70.1866 45.1224 70.4432 44.0159 70.3366C43.1579 70.2437 42.4412 70.0432 41.8167 69.7637C41.636 69.6827 41.4624 69.5947 41.2959 69.5004C40.5639 69.0412 39.955 68.4592 39.3986 67.7564C39.0271 67.2477 38.6736 66.7002 38.3241 66.1306C37.9571 65.547 37.5989 64.9637 37.2269 64.3826C36.8552 63.812 36.4797 63.2468 36.0824 62.6782C35.5905 61.9368 34.9464 61.3699 34.2409 60.9635C34.0242 60.8331 33.8024 60.7194 33.5787 60.619C33.0732 60.3924 32.5475 60.2311 32.0191 60.1208C31.2181 59.9517 30.4034 59.9433 29.635 60.0804L29.6033 60.0867C28.8608 60.2444 28.1824 60.5098 27.5903 60.8008C27.0239 61.0831 26.4169 61.3631 25.8254 61.7559C25.2477 62.1255 24.6522 62.6329 24.2151 63.3571C24.0952 63.5403 23.9931 63.7251 23.9056 63.9091C23.4985 64.7695 23.4035 65.6161 23.338 66.3373C23.2927 66.858 23.268 67.4494 23.2282 68.0738C23.1882 68.6999 23.1358 69.3478 23.032 69.9538C22.9465 70.4787 22.8117 70.9581 22.6208 71.3597C22.5928 71.4186 22.5642 71.4749 22.5351 71.5281C22.2966 71.9627 21.9992 72.2906 21.5811 72.5346C20.7309 73.0126 20.0939 72.9846 19.552 72.7525C18.7555 72.4065 18.1268 71.3989 18.2473 70.1945C18.3289 69.3469 18.4385 68.1624 18.2945 67.0087C18.2197 66.4304 18.0838 65.8527 17.804 65.3132C17.5285 64.7781 17.0746 64.2697 16.4309 63.9833C15.7219 63.6653 14.8804 63.6436 13.9661 63.8661C13.2932 64.0288 12.6372 64.2405 11.9928 64.4669C11.3496 64.6923 10.716 64.9329 10.0895 65.1579C9.4673 65.3808 8.84993 65.5847 8.23866 65.7374C7.6238 65.892 7.01408 65.9982 6.40817 66.0363C5.95391 66.0652 5.27355 65.997 4.63695 65.83C4.30521 65.7388 3.96874 65.6218 3.66472 65.485C3.40479 65.3689 3.16775 65.2385 2.96649 65.0997C2.51952 64.7875 2.23828 64.4565 2.09832 64.0411L2.08217 63.9972C1.91825 63.5766 1.85207 62.9778 2.08318 62.0322C2.14518 61.8233 2.22211 61.6233 2.31446 61.429C2.49979 61.0391 2.74531 60.6758 3.06042 60.3275C3.55784 59.8159 4.15185 59.3984 4.80924 59.0683C5.47913 58.7759 6.21103 58.5579 6.93492 58.3628C7.6979 58.1946 8.4364 57.9979 9.11112 57.641L9.18645 57.5964C9.6941 57.2659 10.1024 56.8625 10.4122 56.4171C10.8918 56.4822 11.3699 56.5297 11.8329 56.5626C12.4162 56.6052 13.003 56.6228 13.5822 56.6088C14.1779 56.5962 14.7716 56.5312 15.3487 56.4147L15.3734 56.4095C15.9652 56.2743 16.5227 56.08 17.0214 55.8727C17.466 55.688 17.8952 55.4935 18.3089 55.2806C18.7258 55.0637 19.1225 54.832 19.5016 54.574C19.8806 54.3159 20.2403 54.0341 20.575 53.7216C20.912 53.4076 21.2253 53.0621 21.5102 52.68C21.7961 52.297 22.0539 51.8788 22.2803 51.4239C22.3036 51.3748 22.3263 51.3296 22.3505 51.2786C22.5467 50.8659 22.7177 50.4237 22.8629 49.9499C23.0669 49.2778 23.1117 48.6219 23.0065 48.0151C22.8985 47.4074 22.6445 46.8588 22.2951 46.3948C21.9451 45.9291 21.5048 45.5472 21.0185 45.2393C20.7877 45.0954 20.5539 44.9736 20.315 44.8665C20.0246 44.7363 19.723 44.6279 19.415 44.5395C18.8407 44.3808 18.2548 44.293 17.6714 44.2692C17.0839 44.249 16.507 44.2914 15.9585 44.3957C15.4467 44.4962 14.9689 44.6079 14.5186 44.7368C14.0745 44.8611 13.65 45.0035 13.245 45.1753C13.0305 45.2653 12.8226 45.3661 12.6205 45.4746C12.651 45.4081 12.6804 45.3405 12.7119 45.2744C13.1362 44.3816 13.6208 43.5407 14.0878 42.8547C14.6524 42.0129 15.665 41.3162 16.8587 40.6695C18.0471 40.0177 19.3836 39.4246 20.5324 38.6279C21.0244 38.2838 21.4332 37.8852 21.7895 37.4597C21.8626 37.4982 21.9356 37.5351 22.0095 37.5683C22.5249 37.7977 23.0596 37.9128 23.5691 37.9941C23.784 38.027 23.9952 38.0527 24.1986 38.0747C23.928 38.6223 23.7077 38.9679 23.3527 39.2344C22.932 39.5522 22.857 40.1406 23.1865 40.5491C23.2846 40.6716 23.408 40.7639 23.5436 40.8248C23.8617 40.9674 24.2484 40.9374 24.5437 40.7145C25.3783 40.0836 25.7549 39.2856 26.0961 38.5722L26.1151 38.5321C26.1531 38.4523 26.1739 38.3698 26.1875 38.2872C26.5688 38.3296 26.9658 38.3687 27.3835 38.3921C28.1306 38.43 28.9176 38.4289 29.7399 38.3203C30.5344 38.2149 31.2173 37.9825 31.8425 37.758C32.4714 37.531 33.0431 37.3108 33.6358 37.1743C34.4118 36.9875 35.1329 36.8928 35.9118 36.7288C36.6853 36.5661 37.519 36.3249 38.3997 35.8374C39.079 35.462 39.755 35.029 40.3887 34.5327C41.0232 34.0353 41.6146 33.4753 42.1191 32.8493C42.481 32.4048 42.7968 31.925 43.0411 31.4111C43.1291 31.2259 43.2068 31.0377 43.2737 30.8476C43.5318 30.1159 43.6333 29.3148 43.5192 28.4837C43.4165 27.6645 43.0965 26.9323 42.6278 26.3459C42.1727 25.752 41.5855 25.2986 40.9459 24.9683C40.8675 24.9286 40.7948 24.894 40.7209 24.8609C40.0961 24.5813 39.4197 24.4184 38.7244 24.3379C38.0181 24.2563 37.2849 24.2687 36.5514 24.3537C36.5716 24.3147 36.5939 24.2756 36.6125 24.2365C37.1638 23.0026 37.0517 21.9374 37.3596 21.1755C37.408 21.0404 37.4646 20.9047 37.5295 20.768C37.9931 19.7836 38.8765 18.8144 39.8807 18.2794C40.44 17.9853 41.0089 17.8164 41.5897 17.7986C41.7772 17.8635 41.9696 17.9224 42.1678 17.9725C42.5229 18.0626 42.8608 18.1107 43.181 18.1333C43.3417 18.1792 43.5061 18.1825 43.6622 18.1489C43.9978 18.149 44.3119 18.1289 44.6008 18.1076C45.2924 18.0541 45.8529 18.008 46.4498 18.1201L46.4844 18.1254L49.6227 18.597C49.6053 18.6093 49.5863 18.6208 49.5691 18.6331C49.2546 18.8532 48.9523 19.0908 48.6897 19.397L48.656 19.4395C48.2837 19.9305 47.9595 20.4746 47.6944 21.0323C47.6678 21.0884 47.6408 21.1464 47.6142 21.2065C47.3357 21.8226 47.1188 22.4736 47.0638 23.1402C46.984 24.0812 47.295 24.952 47.8185 25.6111C48.3415 26.2755 49.0464 26.7549 49.8077 27.0974C50.6456 27.472 51.56 27.6837 52.4482 27.745C55.2397 27.9351 57.7278 27.1969 59.9059 26.0535C62.047 24.9292 63.8766 23.3844 65.5402 21.945C65.8404 21.9814 66.1331 22.0202 66.4113 22.0673C67.0542 22.2062 67.632 22.3624 68.1738 22.6054C68.2996 22.6618 68.4249 22.7236 68.5494 22.7921C69.2251 23.1592 69.873 23.608 70.5455 24.0734L70.5619 24.0844C71.1622 24.4812 71.8019 24.8873 72.52 25.2099C72.6276 25.2581 72.7378 25.305 72.8506 25.3494C73.4983 25.6053 74.162 25.7945 74.829 25.9681L74.866 25.9768C75.5367 26.1236 76.216 26.2822 76.9042 26.4721C77.3167 26.5853 77.7202 26.7256 78.1064 26.8987C78.3253 26.9975 78.5389 27.1063 78.7464 27.2273C79.2837 27.5405 79.7872 27.9666 80.2656 28.494C80.8171 29.3159 81.2977 30.226 81.7455 31.1342L81.7836 31.2044C82.3143 32.0799 82.8738 32.8375 83.5294 33.4513L83.692 33.5736C83.9108 33.7051 84.1371 33.8246 84.3726 33.9302C84.9115 34.1719 85.4862 34.3366 86.0887 34.4192C86.278 34.4544 86.4483 34.507 86.595 34.5728C86.8022 34.6669 86.9608 34.7809 87.088 34.9289C87.1053 34.9841 87.1256 35.0401 87.1453 35.0964C87.1467 35.1013 87.1483 35.1065 87.1496 35.1113C87.1511 35.1168 87.1544 35.1214 87.1559 35.1269C87.3788 35.7491 87.7462 36.4209 88.3838 37.1249L88.5299 37.2571C89.1429 37.7082 89.6871 38.1248 90.166 38.504C90.6419 38.8806 91.0478 39.2214 91.3947 39.525C92.0732 40.116 92.7415 40.6896 93.441 41.2406C93.6568 41.413 93.8771 41.5838 94.1003 41.7534C94.0337 41.8253 93.9743 41.9048 93.9321 41.998C93.8939 42.0826 93.8568 42.1637 93.8204 42.2403C93.454 43.0094 93.0207 43.6809 92.5225 44.2815C91.9669 44.8524 91.3048 45.3219 90.5454 45.7025C89.8801 45.9437 89.1843 46.0732 88.4529 46.0995C87.6458 46.0919 86.8048 46.0252 85.9412 45.9447L85.872 45.9411C84.9309 45.9188 83.9642 45.9926 83.0011 46.2407L82.8514 46.2922C81.9337 46.6934 81.0615 47.2156 80.2248 47.7834C79.4652 48.3119 78.741 48.801 78.0319 49.2237C77.3624 49.5633 76.6879 49.8151 76.011 49.9842C75.324 50.0719 74.6271 50.0908 73.9145 50.0531C73.1638 49.9623 72.4011 49.8316 71.627 49.6771C71.0529 49.5561 70.1841 49.249 69.2969 49.0475L69.2661 49.0411C68.3728 48.8837 67.3614 48.774 66.4344 49.3981C65.9316 49.7707 65.6507 50.2382 65.4394 50.6785C65.107 51.3901 64.9185 52.1115 64.6847 52.59C64.6529 52.6582 64.6204 52.7211 64.5885 52.7777C63.9028 54.0109 63.2533 54.8702 62.5112 55.3749C61.7689 55.8768 60.8763 56.1325 59.4164 56.0711L59.3945 56.0698C58.2181 56.0402 57.1234 55.7932 56.008 55.3529C55.8699 55.2994 55.7312 55.2401 55.583 55.1736C55.3407 55.065 55.0806 54.9404 54.8032 54.816C54.4965 54.6785 54.1667 54.5408 53.8064 54.4326C52.96 54.1568 51.7832 54.0943 50.7302 54.7789C50.0912 55.1579 49.6425 55.7042 49.3745 56.2755C49.0974 56.8614 48.9852 57.469 48.9355 58.0515C48.8432 59.203 48.9852 60.3195 48.9363 61.0747C48.8955 61.7911 48.8292 62.7915 48.6802 63.8983C48.608 64.4672 48.5152 65.0499 48.3951 65.6275C48.2752 66.2027 48.1252 66.7696 47.9406 67.2959C47.8465 67.5555 47.7412 67.8132 47.6269 68.0538C47.2984 68.7461 46.8951 69.3054 46.4397 69.6825ZM98.988 45.9623C98.3461 46.6773 97.7671 47.2586 96.9819 47.6113C94.9396 48.5432 92.5865 48.8728 90.1957 49.8852C87.091 51.2175 83.7268 52.0531 80.4008 53.1701C76.0302 54.6402 71.6059 56.2054 67.2257 57.6522C62.6174 59.1748 57.8696 60.6955 53.119 61.5263C52.3675 61.6576 51.6014 61.7559 50.8248 61.8577C50.8417 61.6121 50.8558 61.3843 50.8672 61.1826C50.9183 60.1714 50.7825 59.1031 50.8627 58.2084C50.8994 57.7584 50.9876 57.3635 51.1317 57.0634C51.2764 56.7656 51.4522 56.5549 51.7533 56.3721L51.7789 56.3562C52.3126 56.0385 52.6311 56.0615 53.2381 56.2227C53.4705 56.2924 53.7253 56.3957 53.995 56.5166C54.2416 56.6272 54.5014 56.7516 54.7747 56.8741C54.9391 56.9478 55.1099 57.0219 55.2895 57.0911C56.5744 57.6004 57.9197 57.9098 59.3505 57.9438C61.0742 58.028 62.4995 57.688 63.6311 56.9056C64.7663 56.1223 65.5474 54.9991 66.2887 53.6751C66.3434 53.5784 66.3941 53.478 66.4417 53.3779C66.7725 52.6714 66.9594 51.9521 67.1966 51.4664C67.3388 51.1612 67.4867 50.9753 67.5931 50.9013C67.6677 50.813 68.1637 50.7306 68.8668 50.8735C69.5979 51.0356 70.4416 51.3367 71.2262 51.5098C72.063 51.6765 72.8876 51.8183 73.7178 51.9174L73.7811 51.9229C74.6291 51.9693 75.4811 51.9477 76.3332 51.8337L76.4382 51.8141C77.2959 51.605 78.1415 51.2892 78.9657 50.8679L79.0205 50.8373C79.8044 50.3714 80.5726 49.8511 81.3469 49.3133C82.0877 48.8096 82.8403 48.3621 83.5795 48.032C84.2921 47.8578 85.0344 47.7974 85.8011 47.8135C86.6767 47.8945 87.5666 47.9662 88.4649 47.9743L88.5066 47.9738C89.4594 47.9421 90.3969 47.7681 91.2906 47.4352L91.383 47.395C92.3482 46.9191 93.2238 46.3038 93.9631 45.5362L94.0076 45.4872C94.6143 44.7604 95.142 43.9442 95.5774 43.0282C95.6077 42.9644 95.6355 42.9028 95.6637 42.8412C96.3644 43.2955 97.1215 43.7395 97.9166 44.1342C98.1396 44.2446 98.3653 44.352 98.595 44.455C98.9987 44.6361 99.4115 44.8011 99.8312 44.9503C99.8534 44.9594 99.8748 44.969 99.8968 44.978C99.5661 45.3116 99.2716 45.6499 98.988 45.9623ZM111.198 38.2785L111.186 38.3039C110.84 39.0285 110.482 39.6937 110.102 40.2831C109.791 40.7576 109.456 41.1831 109.098 41.5634C109.043 41.6078 108.995 41.66 108.951 41.7161C108.928 41.7385 108.907 41.7632 108.884 41.7852C108.627 42.0371 108.352 42.2654 108.061 42.475C107.988 42.5115 107.912 42.5478 107.832 42.5835C107.518 42.7174 107.157 42.8451 106.784 42.9531C106.421 43.0526 106.049 43.1384 105.709 43.2064C105.381 43.2752 105.055 43.3244 104.74 43.3697C104.407 43.4184 104.098 43.4681 103.815 43.5289L103.78 43.5373C103.48 43.6131 103.187 43.659 102.904 43.6747C102.643 43.6895 102.38 43.6766 102.115 43.6438C101.757 43.5726 101.398 43.4827 101.037 43.3731C100.849 43.3157 100.661 43.2465 100.473 43.1797C100.429 43.1605 100.384 43.1433 100.34 43.1234C99.7438 42.856 99.1476 42.5057 98.5684 42.1138C96.7175 40.8485 96.0962 39.3035 95.6507 37.2276C95.5651 36.8157 95.4897 36.3873 95.4177 35.9451C95.332 35.3965 95.3167 34.7611 95.381 34.1075C95.4446 33.4493 95.5815 32.7745 95.7926 32.1466C95.8791 31.8885 95.9782 31.6414 96.0901 31.406C96.1597 31.2595 96.2343 31.1184 96.3135 30.9819C96.5949 30.4974 96.9325 30.0733 97.31 29.7364L97.3289 29.72C97.6266 29.44 97.943 29.2171 98.2721 29.0557L98.2985 29.0427C98.9345 28.7078 99.5259 28.3815 100.102 28.0979C100.693 27.8396 101.308 27.6215 101.966 27.4496C102.679 27.2992 103.438 27.2088 104.271 27.1942C104.677 27.1872 105.099 27.2063 105.542 27.2486C105.977 27.3013 106.432 27.3802 106.912 27.4883C107.227 27.5656 107.775 27.7635 108.346 28.0217C108.564 28.1185 108.787 28.2255 109.008 28.3377L109.103 28.3798C110.003 28.7203 110.855 28.9771 111.217 29.1438C111.218 29.1441 111.222 29.1459 111.23 29.1497C111.313 29.1965 111.35 29.2303 111.445 29.3706C111.529 29.4978 111.626 29.7119 111.784 29.9804C111.911 30.3199 112.031 30.6582 112.117 31.0311C112.207 31.5001 112.258 31.9961 112.236 32.5083C112.225 32.7499 112.313 32.9724 112.461 33.1453C112.465 33.4821 112.454 33.8193 112.423 34.1556C112.36 34.8569 112.223 35.5527 112.017 36.2398C111.841 36.8229 111.626 37.3921 111.365 37.9428C111.312 38.0537 111.256 38.1654 111.198 38.2785ZM109.588 34.6606C109.634 34.1433 109.59 33.6306 109.436 33.1502C109.296 32.7371 109.071 32.3667 108.778 32.0521L108.753 32.0259C108.503 31.7765 108.218 31.5617 107.912 31.3707C107.632 31.2017 107.343 31.0532 107.04 30.9174C107.004 30.9012 106.963 30.8828 106.918 30.8638C106.589 30.7199 106.249 30.5959 105.927 30.4917L105.903 30.4844C105.417 30.3406 104.919 30.2576 104.417 30.2509L104.377 30.2515C103.88 30.2655 103.382 30.3497 102.89 30.4823C102.474 30.5998 102.059 30.7409 101.651 30.9189C101.222 31.1155 100.84 31.3464 100.491 31.6137C100.142 31.8873 99.8407 32.1884 99.5832 32.5178L99.5665 32.5394C99.3658 32.813 99.1938 33.1048 99.0491 33.4094C99.047 33.4138 99.0396 33.4286 99.0295 33.4523C98.8926 33.7576 98.7754 34.0872 98.6982 34.4405L98.6865 34.5039C98.6346 34.863 98.63 35.224 98.6654 35.578L98.6678 35.6C98.7226 36.0373 98.8059 36.4449 98.8802 36.8178C98.9331 37.172 98.9726 37.5315 99.0097 37.8902C99.022 38.1155 99.0247 38.3475 99.0368 38.5934C99.0545 38.9922 99.1144 39.455 99.35 39.9191L99.3798 39.9731C99.629 40.395 100.017 40.7938 100.532 41.0945C100.702 41.1913 100.866 41.2736 101.033 41.3484C101.188 41.4179 101.343 41.4805 101.5 41.5382C101.76 41.6324 102.016 41.7108 102.269 41.7844L102.307 41.7947C102.759 41.9073 103.204 41.9425 103.622 41.9197L103.666 41.9167C104.005 41.8824 104.31 41.8396 104.561 41.8143C105.091 41.7594 105.475 41.2975 105.417 40.7828C105.358 40.2684 104.881 39.896 104.35 39.9511C104.057 39.9813 103.769 40.0208 103.489 40.0495C103.27 40.0597 103.038 40.041 102.801 39.984C102.574 39.9177 102.364 39.8521 102.179 39.7852C102.062 39.7418 101.946 39.6953 101.841 39.6481C101.725 39.596 101.618 39.5419 101.522 39.4876C101.29 39.348 101.165 39.2134 101.07 39.0646C101.015 38.9456 100.98 38.7753 100.969 38.5157C100.958 38.301 100.955 38.0541 100.94 37.7757L100.937 37.7315C100.898 37.3563 100.855 36.9575 100.793 36.5444L100.785 36.4995C100.709 36.1173 100.633 35.7438 100.589 35.3833C100.57 35.185 100.573 34.9895 100.597 34.8024C100.644 34.6019 100.714 34.4021 100.805 34.2013L100.809 34.1912C100.902 33.9955 101.01 33.8132 101.129 33.6481C101.291 33.442 101.481 33.2517 101.701 33.0783C101.929 32.9047 102.186 32.7489 102.466 32.6208C102.757 32.494 103.09 32.3792 103.425 32.2846C103.776 32.1894 104.119 32.1348 104.42 32.1255C104.71 32.1312 105.015 32.1802 105.34 32.2763C105.605 32.3627 105.879 32.4634 106.138 32.577C106.172 32.5909 106.2 32.6036 106.232 32.6179C106.469 32.7243 106.689 32.8388 106.883 32.9555C107.068 33.0697 107.231 33.1964 107.351 33.314C107.471 33.4477 107.543 33.5707 107.595 33.7193C107.658 33.9181 107.689 34.1778 107.66 34.5027C107.637 34.7919 107.572 35.0854 107.445 35.398C107.315 35.6593 107.167 35.8997 106.981 36.1279C106.756 36.3614 106.489 36.5727 106.206 36.7357C105.883 36.8982 105.589 36.9947 105.349 37.0302C105.122 37.0514 104.948 37.0326 104.738 36.9524C104.45 36.7722 104.32 36.629 104.279 36.5637C104.223 36.4657 104.238 36.4855 104.236 36.4363C104.237 36.3765 104.275 36.2238 104.387 35.9823L104.396 35.9616C104.403 35.9448 104.417 35.9146 104.437 35.8729C104.541 35.6536 104.686 35.3846 104.844 35.0779C105.082 34.6152 104.887 34.0522 104.409 33.8201C103.932 33.5876 103.351 33.7744 103.113 34.237C102.964 34.5251 102.814 34.8032 102.68 35.0852C102.66 35.1262 102.636 35.1771 102.609 35.2409C102.468 35.5571 102.337 35.8916 102.306 36.3003C102.268 36.7091 102.39 37.1833 102.647 37.5642C102.913 37.967 103.294 38.2887 103.789 38.5848L103.905 38.6443C104.444 38.8795 105.029 38.954 105.573 38.8924L105.604 38.8888C106.135 38.8148 106.641 38.633 107.129 38.3849L107.168 38.3643C107.643 38.0939 108.067 37.7568 108.429 37.3762L108.472 37.3275C108.78 36.9529 109.02 36.5605 109.21 36.1692L109.233 36.1182C109.439 35.6222 109.551 35.1301 109.588 34.6606ZM43.8423 52.9804C45.5732 52.0448 47.5425 50.4338 48.7435 48.5498C48.9141 48.2788 49.0684 48.0008 49.204 47.7156C50.0386 46.0226 50.1165 43.9062 48.7109 42.0824C48.1416 41.3201 47.3975 40.772 46.5958 40.4145C45.3883 39.8762 44.0658 39.7345 42.7912 39.7452C40.6382 39.7684 38.4817 40.3472 37.1556 40.6051L37.1204 40.6128C35.4018 41.0181 33.7555 41.8208 32.4055 42.966C31.7836 43.4956 31.2274 44.101 30.7591 44.7766C30.6364 44.8504 30.5271 44.9486 30.4461 45.0749L30.4456 45.0747C30.3572 45.2133 30.2791 45.352 30.2121 45.4932C30.1131 45.6976 30.0397 45.9091 29.9937 46.1218C29.8112 46.521 29.6549 46.9382 29.5318 47.374C29.1372 48.7453 29.2571 50.016 29.8252 51.0309C30.3892 52.0476 31.328 52.7587 32.3873 53.2441L32.4543 53.2742C33.5021 53.7429 34.6865 54.0144 35.9057 54.1473C37.1537 54.2817 38.4409 54.2649 39.6522 54.1298C41.2828 53.9375 42.7569 53.5618 43.8423 52.9804ZM31.8821 46.7493C31.8765 46.7222 31.872 46.6931 31.8705 46.6606C32.312 45.7825 32.9287 45.0198 33.6838 44.3756C34.7767 43.4465 36.1519 42.7714 37.5708 42.4367C38.9901 42.1514 41.0091 41.6322 42.8153 41.619C43.9248 41.6063 44.9725 41.7459 45.7877 42.1148C46.3331 42.3611 46.7817 42.6953 47.1498 43.1838C47.2581 43.3306 47.3516 43.4765 47.4345 43.6208C46.6182 45.1166 45.357 46.2295 43.8437 47.0377C42.2098 47.9092 40.2894 48.4029 38.4478 48.5754C36.5524 48.7486 35.3392 48.7727 33.8122 48.0953C33.1562 47.8079 32.4664 47.4577 32.1395 47.132C31.9725 46.9712 31.9051 46.845 31.8821 46.7493ZM36.1154 52.2851C35.0533 52.1704 34.056 51.9309 33.2624 51.5739L33.2031 51.5473C32.403 51.18 31.8353 50.7052 31.529 50.1491C31.3331 49.7873 31.2187 49.3685 31.2384 48.8392C31.2664 48.8599 31.2944 48.8816 31.3226 48.9012C31.8848 49.2895 32.4926 49.5654 33.0039 49.7958L33.0292 49.8072C34.9759 50.6801 36.7254 50.6265 38.6403 50.4405C40.6991 50.2456 42.8572 49.702 44.778 48.6806C45.8016 48.1371 46.7582 47.4491 47.5811 46.6068C47.5398 46.7128 47.4961 46.8195 47.4472 46.9278C47.3453 47.1423 47.2267 47.3561 47.0924 47.5693C46.1588 49.0664 44.3447 50.5767 42.8993 51.3415C42.176 51.7395 40.865 52.1061 39.4217 52.2683C38.3526 52.388 37.1973 52.4019 36.1154 52.2851ZM53.2483 38.4247L53.2505 38.4556C53.3212 39.1758 53.5402 39.8621 53.8911 40.4839C54.2421 41.1042 54.7113 41.6541 55.2561 42.1278L55.2915 42.1578C55.7936 42.5536 56.3477 42.8794 56.932 43.1415C57.0119 43.1773 57.0903 43.2107 57.1664 43.2429L57.1822 43.2494C57.8417 43.5118 58.5292 43.7 59.2223 43.8272C60.0843 43.9965 60.9701 44.0971 61.8489 44.1259C62.5217 44.1646 63.1911 44.1721 63.8587 44.1435C64.5239 44.1152 65.1831 44.054 65.8351 43.9645L65.8621 43.9599C66.5178 43.8514 67.1589 43.7055 67.7849 43.5354C68.4079 43.3662 69.0161 43.1771 69.6124 42.9769C70.8546 42.5701 71.8755 42.0206 72.8019 41.3623C73.737 40.7225 74.6066 39.9374 75.5505 39.0095L75.5737 38.9857C76.4165 38.095 77.1498 37.0453 77.6815 35.9267C77.737 35.8098 77.79 35.694 77.8399 35.5791L77.8585 35.5332C78.3272 34.2739 78.518 32.9778 78.2862 31.7528L78.2805 31.725C78.022 30.5569 77.4301 29.4737 76.477 28.6709C76.0614 28.3196 75.5843 28.0209 75.0545 27.7833C74.3915 27.486 73.6461 27.2834 72.8283 27.182C71.9531 27.0726 71.0907 26.9712 70.2295 26.9127C69.3604 26.8611 68.5018 26.8645 67.6372 26.9299C66.7731 26.9955 65.878 27.1238 64.9552 27.3256C64.0183 27.5049 63.0589 27.7552 62.1129 28.0536C61.1469 28.3588 60.2116 28.7343 59.3267 29.1949C58.449 29.6519 57.6162 30.1827 56.8343 30.7882L56.8342 30.7885C56.2684 31.2235 55.7835 31.6831 55.3528 32.1835C54.9201 32.6855 54.5474 33.2246 54.1785 33.8202C54.0413 34.042 53.9206 34.2621 53.816 34.4822C53.5466 35.0478 53.3851 35.6081 53.2964 36.1545C53.176 36.9299 53.1996 37.6667 53.2483 38.4247ZM74.2103 36.2665C74.5439 36.0201 74.8766 35.7647 75.1991 35.4995C75.5198 35.2356 75.8256 34.9612 76.114 34.6761C76.093 34.7376 76.074 34.7991 76.0509 34.8611C76.01 34.9552 75.968 35.0479 75.9247 35.1389C75.4868 36.0615 74.862 36.9604 74.1588 37.7041C73.2553 38.5933 72.4675 39.2946 71.6699 39.8397C70.8554 40.4163 70.04 40.8546 68.9806 41.2038C68.4075 41.3965 67.8364 41.5738 67.2586 41.7302C66.689 41.8853 66.1171 42.0153 65.5428 42.1109C64.9552 42.1914 64.3638 42.2457 63.7686 42.2712C63.1721 42.2969 62.569 42.2898 61.9557 42.2549L61.9286 42.2529C61.153 42.2294 60.3649 42.1404 59.5891 41.9883C59.001 41.8802 58.4402 41.7251 57.9194 41.5184C57.8567 41.492 57.7969 41.4666 57.7402 41.4412C57.296 41.242 56.8892 41.0014 56.5311 40.7219C56.2183 40.4477 55.9544 40.1489 55.7441 39.8368C55.9572 39.9631 56.1793 40.0786 56.4091 40.1816L56.416 40.1847C56.6504 40.2898 56.8916 40.3821 57.1391 40.4632L57.159 40.4693C57.9178 40.6996 58.7128 40.831 59.5187 40.8732C60.2828 40.9064 61.023 40.9401 61.7471 40.958C62.8176 40.9696 63.8761 40.92 64.9568 40.747C66.0249 40.5765 67.1029 40.3065 68.179 39.8964C68.8875 39.6398 69.6036 39.3264 70.2973 38.961C70.9879 38.5969 71.6525 38.1755 72.283 37.711C72.6138 37.4842 72.9416 37.247 73.2633 36.9995C73.5735 36.7657 73.8928 36.5193 74.2103 36.2665ZM55.8378 34.7865C56.1756 34.2417 56.4922 33.7887 56.8389 33.3866C57.1881 32.9816 57.5702 32.6185 58.0417 32.2559L57.4396 31.5215L58.0448 32.2536C58.7334 31.7198 59.4687 31.2517 60.2458 30.8465C61.0164 30.4455 61.8452 30.1109 62.7168 29.8362C63.6037 29.5557 64.4979 29.3236 65.3494 29.1613L65.3766 29.1557C66.212 28.973 67.0176 28.8574 67.7926 28.7988C68.564 28.7398 69.3297 28.7371 70.1088 28.7828C70.8942 28.8362 71.7206 28.9324 72.5865 29.0405C73.2321 29.1209 73.7807 29.2754 74.2462 29.4841C74.3795 29.5439 74.5036 29.6094 74.6235 29.6782C74.6704 29.8331 74.7577 29.9745 74.8773 30.0875C75.1217 30.4625 75.2915 30.8133 75.3885 31.1243C75.4703 31.403 75.5067 31.6758 75.507 31.9362C75.4597 32.1291 75.3922 32.3158 75.3054 32.4997C75.1668 32.7912 74.9758 33.0776 74.7344 33.3603C74.494 33.5989 74.2286 33.8361 73.9455 34.069C73.6491 34.3129 73.3359 34.5538 73.0153 34.79L72.986 34.8122C72.683 35.0537 72.3743 35.2912 72.0653 35.5244C71.7621 35.7577 71.4597 35.9769 71.1538 36.1863L71.1263 36.2062C70.5629 36.6222 69.9731 36.9959 69.3698 37.314C68.7591 37.6356 68.1245 37.9138 67.4827 38.146C66.531 38.5083 65.5886 38.7453 64.6365 38.8977C63.6984 39.0483 62.7582 39.0945 61.7773 39.0846C61.0948 39.0672 60.3663 39.0346 59.6093 39.0014C58.9672 38.9682 58.3377 38.8631 57.7529 38.6873C57.5665 38.6269 57.3908 38.5588 57.2243 38.4842C56.8971 38.3374 56.602 38.1625 56.3372 37.9587C56.1671 37.8415 55.6945 37.3264 55.4566 36.8941C55.3552 36.7113 55.2782 36.5197 55.2514 36.4049C55.2503 36.401 55.2493 36.3975 55.2485 36.3937C55.3594 36.2095 55.3983 35.9962 55.3678 35.7902C55.4233 35.6193 55.4893 35.4475 55.5735 35.2702C55.6475 35.1145 55.7343 34.954 55.8378 34.7865ZM43.6411 19.7512C43.1911 19.4715 42.5929 19.5976 42.3053 20.0328C41.9742 20.5348 41.6989 21.0376 41.4393 21.5582C41.2063 22.0232 41.4078 22.5842 41.8885 22.8113C41.8938 22.8137 41.8993 22.8162 41.9045 22.8185C42.3825 23.0328 42.9505 22.839 43.1805 22.3786C43.4205 21.8972 43.6577 21.466 43.9349 21.0462C44.2227 20.6106 44.0911 20.0312 43.6411 19.7512ZM45.8409 34.0685C46.0712 34.1717 46.3425 34.1878 46.597 34.092C47.0948 33.905 47.3402 33.3623 47.1462 32.8795C46.9286 32.3498 47.0084 31.6974 47.3346 31.0087C47.5405 30.5736 47.84 30.1474 48.161 29.7962C48.5142 29.4086 48.4763 28.8167 48.0758 28.4735C47.6748 28.1302 47.0639 28.1659 46.7109 28.553C46.2778 29.0277 45.8773 29.5908 45.5774 30.2207C45.1148 31.1915 44.8765 32.3838 45.3445 33.5569C45.4394 33.7927 45.6215 33.9701 45.8409 34.0685ZM47.6418 38.7977C47.725 38.8782 47.8191 38.9411 47.9199 38.9863C48.2775 39.1466 48.7146 39.0841 49.0091 38.7992C49.386 38.4335 49.3849 37.8401 49.0073 37.4741C48.7433 37.214 48.7157 37.0903 48.7065 37.041C48.6992 36.9911 48.7012 36.9109 48.7944 36.7117C48.925 36.4197 49.2596 35.9816 49.5488 35.3873C49.5546 35.3738 49.5625 35.3585 49.5706 35.3401C49.7893 34.8684 49.5717 34.3135 49.0846 34.1004C48.5974 33.887 48.0255 34.0961 47.8065 34.5679L47.7915 34.5994C47.6217 34.9695 47.3057 35.3753 47.0374 35.9239C46.8626 36.2879 46.7095 36.7692 46.7941 37.3133C46.8762 37.8584 47.1872 38.3616 47.6418 38.7977ZM79.4159 39.7722C79.5187 39.9194 79.6568 40.0296 79.8118 40.0991C80.1089 40.2324 80.4679 40.2165 80.7588 40.0269C81.201 39.7387 81.3176 39.1563 81.0181 38.7265C80.9316 38.5979 80.8911 38.4503 80.9277 38.1498C80.9651 37.8581 81.1041 37.4668 81.2991 37.0602C81.5749 36.4762 81.9474 35.8786 82.2175 35.3169C82.4406 34.8475 82.2276 34.2904 81.7421 34.0727C81.2573 33.8553 80.6831 34.0594 80.46 34.5289C80.2674 34.9391 79.8763 35.5722 79.5418 36.2722C79.3076 36.7688 79.0928 37.3061 79.0099 37.8998C78.9256 38.4843 78.998 39.1763 79.4159 39.7722ZM83.5647 41.5805L83.5764 41.5858C84.0562 41.8009 84.6262 41.6037 84.8537 41.1405C85.1412 40.5558 85.472 40.1017 85.8586 39.7439C86.2448 39.3872 86.2585 38.7939 85.8894 38.4191C85.5201 38.0441 84.9081 38.0293 84.5226 38.3861L84.5223 38.3854C83.9381 38.9257 83.4745 39.5828 83.107 40.331C82.8776 40.7976 83.0828 41.3571 83.5647 41.5805ZM27.148 45.3234C27.1493 45.2986 27.1575 45.2257 27.1887 45.1222C27.2252 44.9922 27.2906 44.8241 27.3746 44.6473C27.5123 44.3563 27.7018 44.041 27.8861 43.7858C28.063 43.5326 28.2621 43.3295 28.3015 43.3063C28.7225 42.9888 28.7977 42.4002 28.4689 41.991C28.1408 41.5822 27.5328 41.5079 27.1118 41.8253L27.112 41.8248C26.7946 42.0704 26.5539 42.3622 26.2979 42.7112C26.0488 43.0591 25.8112 43.4534 25.6174 43.8594C25.3685 44.4419 25.1145 44.9678 25.2614 45.7292C25.3332 46.0204 25.5378 46.2468 25.7978 46.3634C25.9879 46.4487 26.2079 46.475 26.4272 46.4247C26.9377 46.3071 27.2554 45.8179 27.148 45.3234ZM24.2476 56.087C23.912 55.6838 23.3036 55.6196 22.8878 55.9435C21.5567 56.9761 20.7705 58.1872 20.1113 59.5836C19.888 60.0535 20.1005 60.6106 20.5859 60.8282C21.0707 61.0457 21.645 60.8414 21.8683 60.3715C22.4825 59.0901 23.0537 58.2297 24.1032 57.4046C24.5186 57.0802 24.5832 56.4905 24.2476 56.087ZM11.8745 60.2563C11.5898 59.818 10.9925 59.6859 10.5409 59.9614C9.60082 60.5399 8.86456 61.2065 8.16382 61.607C7.45059 62.0059 6.89029 62.1857 5.98334 61.9984C5.46261 61.8824 4.9448 62.1981 4.8269 62.703C4.72402 63.1421 4.95879 63.58 5.36497 63.7622C5.4255 63.7893 5.48966 63.8109 5.55727 63.8256C6.99168 64.1576 8.23698 63.7695 9.16241 63.2151C10.1001 62.6629 10.8364 61.9908 11.5737 61.5485C12.0251 61.2731 12.1597 60.6951 11.8745 60.2563ZM43.6497 65.1125C42.0216 63.8355 41.1731 62.5515 40.5341 60.6047C40.2261 59.6389 39.7956 58.9038 39.2073 58.3595C38.6195 57.8144 37.9556 57.4949 37.239 57.1719C36.9535 57.0444 36.6557 56.9157 36.3383 56.7728C35.8531 56.5552 35.2787 56.7598 35.0554 57.2296C34.8322 57.6992 35.0445 58.2564 35.5298 58.474C35.8628 58.6226 36.163 58.7524 36.4308 58.8725C37.1158 59.1784 37.5587 59.4169 37.8679 59.7082C38.1768 60.0003 38.4336 60.3811 38.6886 61.1599C39.3895 63.3628 40.5345 65.1041 42.4425 66.5734C42.5055 66.6221 42.5724 66.6618 42.6424 66.6932C43.0365 66.8699 43.5181 66.7721 43.8013 66.43C44.1347 66.0263 44.0665 65.4366 43.6497 65.1125ZM60.9998 52.3772C60.6925 51.9535 60.0897 51.8493 59.6529 52.1464C59.3893 52.3209 59.1424 52.3805 58.8272 52.3756C58.5153 52.3679 58.1446 52.2703 57.7733 52.1027C57.5455 52.0012 57.32 51.8757 57.1102 51.7404C55.9918 51.0177 54.9881 50.3454 53.6151 49.7297C53.1298 49.5121 52.5554 49.7167 52.3321 50.1866C52.109 50.656 52.3213 51.2133 52.8065 51.4309C54.013 51.9719 54.9013 52.5623 56.0399 53.2986C56.3246 53.4825 56.6339 53.6551 56.965 53.8035C57.5089 54.0463 58.1169 54.2291 58.7759 54.2489C59.4312 54.2707 60.1461 54.1059 60.7648 53.6823C61.2015 53.3855 61.3065 52.8017 60.9998 52.3772ZM73.4688 44.2361C73.3407 44.6849 73.5724 45.1492 73.9961 45.3392C74.0428 45.3601 74.0917 45.3776 74.1428 45.3917L74.1425 45.391C74.9495 45.5746 75.5254 45.3061 76.0562 45.0698C76.5809 44.8127 77.0351 44.4975 77.3536 44.24C77.7621 43.9082 77.815 43.3172 77.4716 42.9203C77.1279 42.5233 76.5181 42.4707 76.1091 42.8026C75.9039 42.971 75.5259 43.2301 75.1838 43.3953C75.0134 43.4788 74.851 43.5381 74.7436 43.5626C74.6895 43.5756 74.6503 43.5795 74.6345 43.5797C74.6339 43.5798 74.6335 43.5799 74.6333 43.5798C74.127 43.4567 73.6089 43.7456 73.4688 44.2361ZM59.3155 35.0367C59.4145 35.1618 59.5395 35.2563 59.6776 35.3182C59.9932 35.4597 60.3767 35.4314 60.6714 35.213C61.3322 34.7113 61.7155 34.1744 62.0387 33.9168C62.4407 33.5776 62.482 32.9854 62.1309 32.5949C61.7796 32.2041 61.1689 32.1621 60.7669 32.5019C60.2054 32.9894 59.8626 33.4614 59.4941 33.7227C59.0703 34.0366 58.9904 34.6245 59.3155 35.0367ZM65.5485 33.8311C65.0515 34.1596 64.5332 34.5605 64.0793 35.0722C63.7313 35.4642 63.7783 36.0561 64.1843 36.3944C64.254 36.4528 64.3296 36.4994 64.4092 36.5351C64.792 36.7068 65.2597 36.6205 65.5479 36.2954C65.8504 35.9537 66.2345 35.6485 66.6403 35.3811C67.0809 35.0897 67.1941 34.5071 66.8929 34.0797C66.5913 33.6512 65.9896 33.5399 65.5485 33.8311ZM65.1988 32.1057C65.302 32.2977 65.4637 32.4405 65.6516 32.5248C65.914 32.6427 66.2274 32.646 66.5031 32.5074C66.986 32.265 67.4103 31.9244 67.7489 31.5104C68.0798 31.1052 68.0085 30.5159 67.5893 30.1937C67.1705 29.872 66.5625 29.9389 66.2314 30.3447L66.2316 30.3442C66.0575 30.5563 65.8525 30.7205 65.6095 30.8424C65.1359 31.0806 64.9519 31.6458 65.1988 32.1057ZM35.7644 46.7826C35.972 46.8757 36.2142 46.8984 36.4502 46.8291C36.9005 46.6991 37.3095 46.4531 37.6276 46.1302C37.9972 45.7573 37.9838 45.164 37.5982 44.8055C37.2125 44.4464 36.6002 44.4574 36.2315 44.8302L36.2308 44.8299C36.1259 44.9331 36.0297 44.9911 35.886 45.0346C35.375 45.184 35.0872 45.7077 35.2434 46.2027C35.327 46.4695 35.5223 46.6738 35.7644 46.7826ZM40.1728 44.9145C40.2405 45.2124 40.4479 45.446 40.7135 45.5651C40.8983 45.648 41.1116 45.6756 41.3256 45.6306C41.8448 45.5368 42.3148 45.1391 42.4991 44.7116C42.5758 44.5502 42.6249 44.3878 42.6552 44.2271C42.7536 43.7187 42.4073 43.2284 41.8825 43.132C41.3699 43.0383 40.8769 43.354 40.7622 43.8421C40.3271 44.0066 40.0689 44.4577 40.1728 44.9145ZM28.4908 31.6244C28.7164 31.7256 28.982 31.7432 29.2329 31.6535C29.5606 31.5352 29.9025 31.376 30.2448 31.1903C30.7097 30.936 30.8735 30.3649 30.6106 29.9139C30.3478 29.4628 29.7582 29.3023 29.2932 29.5557C29.0261 29.7017 28.7581 29.8236 28.5577 29.8954C28.0572 30.0746 27.8023 30.6134 27.9887 31.0989C28.0815 31.3408 28.2666 31.5238 28.4908 31.6244ZM13.198 49.8063C13.3012 49.9933 13.4606 50.1328 13.6449 50.2155C13.911 50.3348 14.2295 50.3358 14.5071 50.1922C15.1225 49.8759 15.5959 49.385 15.9145 48.8265C16.174 48.375 16.007 47.8039 15.54 47.551C15.0733 47.2976 14.4849 47.4589 14.2247 47.9108L14.2249 47.9104C14.0477 48.2123 13.8563 48.3986 13.592 48.5382C13.1218 48.7818 12.9449 49.3496 13.198 49.8063Z" fill="#939393"/>
</svg>
