<svg width="31" height="31" viewBox="0 0 31 31" fill="none" xmlns="http://www.w3.org/2000/svg">
<rect width="31" height="31" rx="15.5" fill="#FFB014"/>
<mask id="mask0_1_59" style="mask-type:alpha" maskUnits="userSpaceOnUse" x="3" y="3" width="24" height="25">
<rect x="3" y="3.5" width="24" height="24" fill="#D9D9D9"/>
</mask>
<g mask="url(#mask0_1_59)">
<path d="M22.95 24.5C20.8667 24.5 18.8083 24.0458 16.775 23.1375C14.7417 22.2292 12.8917 20.9417 11.225 19.275C9.55833 17.6083 8.27083 15.7583 7.3625 13.725C6.45417 11.6917 6 9.63333 6 7.55C6 7.25 6.1 7 6.3 6.8C6.5 6.6 6.75 6.5 7.05 6.5H11.1C11.3333 6.5 11.5417 6.57917 11.725 6.7375C11.9083 6.89583 12.0167 7.08333 12.05 7.3L12.7 10.8C12.7333 11.0667 12.725 11.2917 12.675 11.475C12.625 11.6583 12.5333 11.8167 12.4 11.95L9.975 14.4C10.3083 15.0167 10.7042 15.6125 11.1625 16.1875C11.6208 16.7625 12.125 17.3167 12.675 17.85C13.1917 18.3667 13.7333 18.8458 14.3 19.2875C14.8667 19.7292 15.4667 20.1333 16.1 20.5L18.45 18.15C18.6 18 18.7958 17.8875 19.0375 17.8125C19.2792 17.7375 19.5167 17.7167 19.75 17.75L23.2 18.45C23.4333 18.5167 23.625 18.6375 23.775 18.8125C23.925 18.9875 24 19.1833 24 19.4V23.45C24 23.75 23.9 24 23.7 24.2C23.5 24.4 23.25 24.5 22.95 24.5ZM9.025 12.5L10.675 10.85L10.25 8.5H8.025C8.10833 9.18333 8.225 9.85833 8.375 10.525C8.525 11.1917 8.74167 11.85 9.025 12.5ZM17.975 21.45C18.625 21.7333 19.2875 21.9583 19.9625 22.125C20.6375 22.2917 21.3167 22.4 22 22.45V20.25L19.65 19.775L17.975 21.45Z" fill="#1C1B1F"/>
</g>
</svg>
