<svg width="31" height="31" viewBox="0 0 31 31" fill="none" xmlns="http://www.w3.org/2000/svg">
<rect width="31" height="31" rx="15.5" fill="#FFB014"/>
<mask id="mask0_1_52" style="mask-type:alpha" maskUnits="userSpaceOnUse" x="3" y="3" width="24" height="25">
<rect x="3" y="3.5" width="24" height="24" fill="#D9D9D9"/>
</mask>
<g mask="url(#mask0_1_52)">
<path d="M15 15.5C15.55 15.5 16.0208 15.3042 16.4125 14.9125C16.8042 14.5208 17 14.05 17 13.5C17 12.95 16.8042 12.4792 16.4125 12.0875C16.0208 11.6958 15.55 11.5 15 11.5C14.45 11.5 13.9792 11.6958 13.5875 12.0875C13.1958 12.4792 13 12.95 13 13.5C13 14.05 13.1958 14.5208 13.5875 14.9125C13.9792 15.3042 14.45 15.5 15 15.5ZM15 22.85C17.0333 20.9833 18.5417 19.2875 19.525 17.7625C20.5083 16.2375 21 14.8833 21 13.7C21 11.8833 20.4208 10.3958 19.2625 9.2375C18.1042 8.07917 16.6833 7.5 15 7.5C13.3167 7.5 11.8958 8.07917 10.7375 9.2375C9.57917 10.3958 9 11.8833 9 13.7C9 14.8833 9.49167 16.2375 10.475 17.7625C11.4583 19.2875 12.9667 20.9833 15 22.85ZM15 25.5C12.3167 23.2167 10.3125 21.0958 8.9875 19.1375C7.6625 17.1792 7 15.3667 7 13.7C7 11.2 7.80417 9.20833 9.4125 7.725C11.0208 6.24167 12.8833 5.5 15 5.5C17.1167 5.5 18.9792 6.24167 20.5875 7.725C22.1958 9.20833 23 11.2 23 13.7C23 15.3667 22.3375 17.1792 21.0125 19.1375C19.6875 21.0958 17.6833 23.2167 15 25.5Z" fill="#1C1B1F"/>
</g>
</svg>
