<svg width="31" height="31" viewBox="0 0 31 31" fill="none" xmlns="http://www.w3.org/2000/svg">
<rect width="31" height="31" rx="15.5" fill="#FFB014"/>
<mask id="mask0_1_66" style="mask-type:alpha" maskUnits="userSpaceOnUse" x="3" y="3" width="24" height="25">
<rect x="3" y="3.5" width="24" height="24" fill="#D9D9D9"/>
</mask>
<g mask="url(#mask0_1_66)">
<path d="M7 23.5C6.45 23.5 5.97917 23.3042 5.5875 22.9125C5.19583 22.5208 5 22.05 5 21.5V9.5C5 8.95 5.19583 8.47917 5.5875 8.0875C5.97917 7.69583 6.45 7.5 7 7.5H23C23.55 7.5 24.0208 7.69583 24.4125 8.0875C24.8042 8.47917 25 8.95 25 9.5V21.5C25 22.05 24.8042 22.5208 24.4125 22.9125C24.0208 23.3042 23.55 23.5 23 23.5H7ZM15 16.5L7 11.5V21.5H23V11.5L15 16.5ZM15 14.5L23 9.5H7L15 14.5ZM7 11.5V9.5V21.5V11.5Z" fill="#1C1B1F"/>
</g>
</svg>
