<svg width="39" height="39" viewBox="0 0 39 39" fill="none" xmlns="http://www.w3.org/2000/svg">
<path d="M15.6 1.95001C12.7566 1.95337 10.0306 3.0844 8.01998 5.095C6.00938 7.1056 4.87835 9.83159 4.875 12.675C4.87238 14.9985 5.63131 17.2589 7.0356 19.11C7.0356 19.11 7.3281 19.4951 7.37587 19.5507L15.6 29.25L23.828 19.5458C23.8709 19.4942 24.1644 19.11 24.1644 19.11L24.1654 19.1071C25.5687 17.2566 26.3273 14.9974 26.325 12.675C26.3216 9.83159 25.1906 7.1056 23.18 5.095C21.1694 3.0844 18.4434 1.95337 15.6 1.95001ZM15.6 16.575C14.8287 16.575 14.0746 16.3463 13.4333 15.9177C12.7919 15.4892 12.2921 14.8801 11.9969 14.1675C11.7017 13.4548 11.6245 12.6707 11.7749 11.9142C11.9254 11.1576 12.2969 10.4627 12.8423 9.9173C13.3877 9.37187 14.0826 9.00043 14.8391 8.84995C15.5957 8.69947 16.3798 8.7767 17.0925 9.07188C17.8051 9.36706 18.4142 9.86694 18.8427 10.5083C19.2713 11.1496 19.5 11.9037 19.5 12.675C19.4987 13.709 19.0874 14.7002 18.3563 15.4313C17.6252 16.1624 16.6339 16.5737 15.6 16.575Z" fill="#FF0000"/>
</svg>
