<svg width="51" height="51" viewBox="0 0 51 51" fill="none" xmlns="http://www.w3.org/2000/svg">
<rect width="51" height="51" rx="25.5" fill="white"/>
<mask id="mask0_1_304" style="mask-type:alpha" maskUnits="userSpaceOnUse" x="11" y="11" width="30" height="30">
<rect x="11" y="11" width="30" height="30" fill="#D9D9D9"/>
</mask>
<g mask="url(#mask0_1_304)">
<path d="M17.25 38.5C16.5625 38.5 15.974 38.2552 15.4844 37.7656C14.9948 37.2761 14.75 36.6875 14.75 36V21C14.75 20.3125 14.9948 19.724 15.4844 19.2344C15.974 18.7448 16.5625 18.5 17.25 18.5H19.75C19.75 16.7708 20.3594 15.2969 21.5781 14.0781C22.7969 12.8594 24.2708 12.25 26 12.25C27.7292 12.25 29.2031 12.8594 30.4219 14.0781C31.6406 15.2969 32.25 16.7708 32.25 18.5H34.75C35.4375 18.5 36.026 18.7448 36.5156 19.2344C37.0052 19.724 37.25 20.3125 37.25 21V36C37.25 36.6875 37.0052 37.2761 36.5156 37.7656C36.026 38.2552 35.4375 38.5 34.75 38.5H17.25ZM17.25 36H34.75V21H17.25V36ZM26 28.5C27.7292 28.5 29.2031 27.8906 30.4219 26.6719C31.6406 25.4531 32.25 23.9792 32.25 22.25H29.75C29.75 23.2917 29.3854 24.1771 28.6562 24.9063C27.9271 25.6354 27.0417 26 26 26C24.9583 26 24.0729 25.6354 23.3438 24.9063C22.6146 24.1771 22.25 23.2917 22.25 22.25H19.75C19.75 23.9792 20.3594 25.4531 21.5781 26.6719C22.7969 27.8906 24.2708 28.5 26 28.5ZM22.25 18.5H29.75C29.75 17.4583 29.3854 16.5729 28.6562 15.8438C27.9271 15.1146 27.0417 14.75 26 14.75C24.9583 14.75 24.0729 15.1146 23.3438 15.8438C22.6146 16.5729 22.25 17.4583 22.25 18.5Z" fill="#1C1B1F"/>
</g>
</svg>
