<svg width="43" height="43" viewBox="0 0 43 43" fill="none" xmlns="http://www.w3.org/2000/svg">
<path d="M13.4375 9.85413C13.4375 7.71582 14.2869 5.66509 15.799 4.15308C17.311 2.64107 19.3617 1.79163 21.5 1.79163C23.6383 1.79163 25.689 2.64107 27.201 4.15308C28.7131 5.66509 29.5625 7.71582 29.5625 9.85413V12.5416H37.625V41.2083H5.375V12.5416H13.4375V9.85413ZM13.4375 16.125H8.95833V37.625H34.0417V16.125H29.5625V21.5H25.9792V16.125H17.0208V21.5H13.4375V16.125ZM25.9792 12.5416V9.85413C25.9792 8.66618 25.5073 7.52688 24.6672 6.68688C23.8272 5.84687 22.6879 5.37496 21.5 5.37496C20.3121 5.37496 19.1728 5.84687 18.3328 6.68688C17.4927 7.52688 17.0208 8.66618 17.0208 9.85413V12.5416H25.9792Z" fill="white"/>
</svg>
