<svg width="644" height="421" viewBox="0 0 644 421" fill="none" xmlns="http://www.w3.org/2000/svg">
<path d="M641.038 206.99C642.39 202.484 643.3 197.886 643.716 193.229C644.142 188.595 644.031 184.025 643.557 179.585C643.072 175.101 642.156 170.741 640.906 166.526L640.847 166.334C639.736 163.077 638.307 159.951 636.603 156.93C634.969 153.855 633.079 150.861 630.985 147.904L630.801 147.661C628.317 144.542 625.484 141.414 622.336 138.272C619.003 135.047 615.219 131.76 610.745 128.361L610.407 128.127C607.711 126.382 604.817 124.69 601.73 123.112L601.539 123.015C601.296 122.903 601.074 122.804 600.879 122.716C597.992 121.421 594.957 120.175 591.766 118.999C588.326 117.734 584.813 116.625 581.356 115.654C577.889 114.696 574.558 113.871 571.465 113.141L571.34 113.11C566.558 112.099 562.767 111.312 559.982 110.722L559.98 110.722C557.504 110.158 555.763 109.663 554.767 109.256C552.484 107.941 550.595 106.709 549.004 105.407C547.379 103.645 545.518 101.483 543.268 99.0964L543.125 98.9513C540.23 96.1125 536.734 93.2406 532.62 90.3432L532.494 90.2596C528.08 87.3263 523.45 84.471 518.659 81.6915C514.568 79.3623 510.468 77.1278 506.325 74.954C501.069 72.2487 495.796 69.6887 490.485 67.2771C489.972 67.0392 489.456 66.811 488.955 66.5863C484.153 64.4328 479.343 62.4095 474.561 60.5024C469.28 58.3918 464.039 56.3997 458.88 54.455C453.507 52.5229 448.161 50.773 442.76 49.183C434.654 46.7947 426.528 44.7346 418.478 42.5658C410.583 40.3581 402.706 37.8216 394.893 35.0925C391.049 33.5584 387.237 32.0001 383.464 30.4291C381.903 29.7734 380.342 29.0991 378.798 28.4068C376.672 27.4533 374.566 26.4675 372.486 25.4475C368.809 23.6351 365.109 21.8235 361.368 20.0964C360.795 19.833 360.214 19.5693 359.641 19.3124C356.415 17.8658 353.157 16.5261 349.848 15.3205L349.722 15.275C345.717 13.9246 341.632 12.8338 337.462 11.9833L337.301 11.9538C332.98 11.2059 328.609 10.8616 324.204 10.834L323.946 10.8379C319.691 11.0051 315.498 11.2334 311.382 11.3582C307.496 11.4793 303.645 11.3538 299.828 10.9762C296.24 10.2963 292.486 9.20782 288.46 7.64401C284.088 5.95563 279.39 4.09056 274.491 2.46639L274.183 2.37284C269.002 0.979785 263.801 0.185398 258.686 0.027631C253.551 -0.129869 248.584 0.392496 243.805 1.46804L243.275 1.61519C238.612 3.16405 234.126 5.21053 229.959 7.78837C225.806 10.3531 222.028 13.3949 218.592 16.8664L218.38 17.0911C215.232 20.6613 212.427 24.6148 209.998 28.9544L209.911 29.1171C209.594 29.7305 209.289 30.3476 208.994 30.9676C207.238 34.6628 205.769 38.5872 204.602 42.7056L204.542 42.938C202.628 51.112 202.283 58.6107 203.67 65.8227L203.739 66.1318C205.572 73.3301 209.212 80.1832 214.781 86.8353L214.937 87.0153C216.792 89.0429 218.829 90.9689 221.024 92.7549C220.405 93.0467 219.795 93.3488 219.201 93.6739C211.244 97.9883 205.004 104.91 201.381 112.478C200.882 113.528 200.43 114.601 200.036 115.692C197.633 122.803 198.053 128.557 196.215 132.001C195.749 132.974 195.179 133.847 194.341 134.736C190.86 138.601 182.557 141.534 175.377 144.285C157.954 151.217 141.186 160.942 130.077 176.885C127.769 180.225 125.886 183.744 124.13 187.204C123.771 187.679 123.521 188.204 123.348 188.749C122.248 190.943 121.184 193.097 120.08 195.15C116.999 200.935 113.702 205.773 109.214 208.879C103.992 212.541 96.7316 215.84 89.5404 219.749C82.3759 223.683 75.1054 228.272 70.2044 235.428C67.2497 239.778 64.2896 244.926 61.6691 250.432C60.671 252.532 59.721 254.69 58.8446 256.883C57.2592 260.829 55.9103 264.868 54.9329 268.865C54.3569 271.243 53.9274 273.597 53.6416 275.922C53.4387 276.571 53.3686 277.229 53.4252 277.876C53.3501 278.791 53.2984 279.701 53.2816 280.6C53.1805 286.764 53.3977 292.568 53.164 297.574C53.1501 297.903 53.1276 298.218 53.1081 298.54C53.0261 298.969 52.9922 299.401 53.0183 299.832C52.7076 303.671 52.0333 306.952 50.7077 309.722C50.6558 309.831 50.5908 309.968 50.5068 310.136C49.4974 312.113 48.1152 313.776 45.7975 315.355C43.5616 316.509 40.3173 317.461 36.4676 318.288L36.2005 318.354C31.8795 319.521 27.1264 320.898 22.4207 322.967L22.181 323.079C17.4322 325.443 12.9701 328.547 9.16242 332.496L9.05035 332.619C6.64042 335.279 4.64482 338.203 3.1386 341.373C2.37173 342.986 1.72796 344.665 1.21853 346.41L1.16585 346.61C-0.519956 353.334 -0.349926 359.087 1.49742 363.869C3.16869 368.781 6.60875 372.46 10.4019 375.061C12.191 376.29 14.1033 377.327 16.0792 378.216C18.4086 379.257 20.8234 380.09 23.2329 380.749C23.7259 380.877 24.2119 380.965 24.7031 381.076C24.6479 382.039 24.6788 382.983 24.7678 383.907C25.0118 386.094 25.587 388.257 26.3362 390.391C27.1486 392.675 28.1789 394.981 29.3838 397.089C30.6171 399.205 31.8977 401.108 33.8446 402.748C35.2497 403.883 36.723 404.755 38.2244 405.428C41.4884 406.885 44.8619 407.446 48.0684 407.642L48.1836 407.648C52.8164 407.828 57.2263 407.327 60.6687 407.108C67.2749 406.668 73.5543 405.522 79.5674 404.377C83.8756 403.553 88.0848 402.728 92.2643 401.949C93.7674 409.506 98.5318 415.95 105.514 419.128C105.562 419.15 105.612 419.173 105.662 419.195C111.94 422.01 119.885 421.63 127.092 417.385C131.343 414.935 134.424 411.417 136.495 407.6C136.76 407.108 137.004 406.626 137.232 406.146C138.853 402.728 139.81 399.114 140.403 395.517C140.485 395.032 140.548 394.548 140.619 394.063C145.934 392.947 151.225 391.759 156.484 390.506C162.735 389.02 168.971 387.5 175.197 385.985C179.347 384.976 183.499 383.966 187.621 382.96C191.582 381.999 195.322 381.089 198.815 380.239C201.563 379.56 204.195 378.918 206.794 378.292C208.727 381.422 210.76 384.573 212.99 387.617L213.104 387.767C216.846 392.515 221.262 396.8 226.72 400.188L226.901 400.297C228.167 401.017 229.482 401.687 230.852 402.301C235.474 404.373 240.712 405.804 246.611 406.435C255.364 407.439 263.023 404.947 268.532 400.285C272.653 396.845 275.684 392.396 278 387.536C278.806 385.83 279.526 384.078 280.17 382.301C281.409 378.757 282.357 375.145 283.104 371.558C283.851 367.985 284.408 364.442 284.838 361.062C284.933 360.35 285.022 359.648 285.104 358.953C285.361 358.955 285.619 358.94 285.879 358.905C290.767 358.251 295.813 357.642 300.99 356.737C328.76 351.873 355.969 343.12 381.977 334.534C406.786 326.339 431.708 317.518 456.201 309.281C474.335 303.168 493.582 298.423 512.171 290.473C523.795 285.435 537.128 283.582 550.561 277.592C557.315 274.54 561.718 269.819 565.45 265.685C568.795 261.942 571.681 258.671 575.048 256.426C582.109 257.565 589.413 257.57 596.734 255.768C603.4 254.14 609.163 251.49 614.13 248.064C615.49 247.346 616.751 246.589 617.905 245.751L618.14 245.564C619.593 244.375 620.891 243.006 621.919 241.389C624.525 238.665 626.886 235.668 629.024 232.413C631.475 228.608 633.665 224.528 635.722 220.216L635.725 220.217C636.092 219.495 636.455 218.767 636.805 218.03C638.526 214.408 639.91 210.713 641.038 206.99ZM223.166 80.1272C218.512 74.5244 215.79 69.2791 214.349 63.7924C213.314 58.2395 213.515 52.4362 215.135 45.4091C216.143 41.8649 217.405 38.5206 218.887 35.4035C219.127 34.8988 219.37 34.4004 219.62 33.916C221.665 30.2818 223.981 27.019 226.566 24.0709C229.425 21.2055 232.48 18.7544 235.83 16.6878C239.138 14.6428 242.753 12.9717 246.557 11.6896C250.395 10.8456 254.304 10.4518 258.375 10.574C262.512 10.7006 266.805 11.3407 271.16 12.5015C272.97 13.105 274.785 13.7647 276.599 14.4394C275.458 15.4226 274.362 16.4546 273.351 17.5421C270.776 20.3759 268.503 23.4036 266.641 26.1738C264.66 28.9318 262.818 31.9971 261.208 35.2697C261.093 35.5043 260.977 35.7481 260.869 35.9749C259.372 39.1261 258.127 42.48 257.186 45.9189C255.18 53.3234 254.5 61.1206 256.06 68.2938C256.434 69.9864 257.607 71.3155 259.113 71.9909C260.143 72.4527 261.331 72.6082 262.525 72.3663C265.462 71.7638 267.337 68.9616 266.708 66.1114C265.597 61.178 266.017 54.7859 267.71 48.6472C268.491 45.7944 269.53 42.9925 270.758 40.4089C270.856 40.2018 270.947 40.0168 271.028 39.8544C272.413 37.0356 273.996 34.4158 275.647 32.1249L275.754 31.9728C277.368 29.559 279.393 26.8765 281.491 24.5698C282.411 23.5782 283.423 22.6216 284.443 21.7974C285.352 21.1094 286.24 20.5614 287.018 20.1865C287.631 19.9637 288.13 19.871 288.617 19.8411C289.372 19.8442 290.189 19.9178 291.086 20.0803C291.606 20.1752 292.119 20.171 292.62 20.1225C294.437 20.6142 296.24 21.0474 298.025 21.3787L298.48 21.4427C302.886 21.895 307.314 22.0426 311.757 21.9052C315.982 21.7739 320.142 21.5516 324.223 21.3872C328.045 21.4125 331.746 21.709 335.337 22.3286C338.594 22.994 341.766 23.8281 344.871 24.8244C344.069 25.5224 343.272 26.2526 342.477 27.0474C340.072 29.4976 337.862 32.3248 335.916 35.3287L335.774 35.561C334.982 36.9394 334.257 38.3301 333.599 39.7143C332.798 41.4001 332.092 43.0791 331.484 44.705L331.453 44.7931C330.45 47.6224 329.648 50.292 329.067 52.5965C328.499 54.8255 328.084 56.6287 327.984 58.4842C327.888 60.6848 329.201 62.6366 331.149 63.5099C331.773 63.7898 332.462 63.9587 333.192 63.9919C336.195 64.1236 338.733 61.8699 338.863 58.9592C338.855 58.6582 339.124 57.0694 339.634 55.1703C340.13 53.1967 340.842 50.8174 341.728 48.3031C342.236 46.9516 342.826 45.5513 343.492 44.15C344.022 43.0332 344.599 41.9196 345.218 40.839C346.797 38.4159 348.596 36.1376 350.352 34.3506C352.154 32.5203 353.891 31.1954 354.93 30.6676C355.203 30.5259 355.414 30.441 355.553 30.3949C356.553 30.7132 357.593 30.7323 358.56 30.4981C361.548 31.9031 364.545 33.3582 367.584 34.8561C369.789 35.9359 372.006 36.9759 374.247 37.981C375.878 38.7122 377.519 39.4244 379.176 40.1179C383.046 41.7276 386.94 43.3177 390.868 44.8869L391.099 44.9727C399.125 47.7783 407.27 50.4034 415.538 52.7192C423.747 54.9275 431.789 56.9674 439.617 59.2771C441.502 59.8329 443.37 60.4286 445.239 61.0236C444.641 61.3246 444.032 61.6066 443.446 61.9319L443.138 62.1153C440.928 63.5288 438.846 65.1378 436.892 66.9014C434.932 68.6652 433.104 70.5745 431.385 72.5944L431.198 72.8255C429.611 74.9127 428.156 77.0653 426.848 79.2601C425.774 81.0572 424.795 82.8857 423.923 84.7196C423.727 85.1338 423.542 85.536 423.364 85.9316L423.259 86.1931C421.516 90.7387 420.527 95.309 420.053 99.6427C419.799 101.954 421.126 104.077 423.19 105.003C423.715 105.238 424.285 105.395 424.892 105.459C427.88 105.775 430.564 103.678 430.879 100.782C431.263 97.2464 432.065 93.5717 433.419 90.0129C433.552 89.7175 433.683 89.4312 433.814 89.1546C434.545 87.617 435.365 86.0827 436.271 84.573C437.359 82.7503 438.564 80.9611 439.876 79.2212C441.302 77.5549 442.785 76.0157 444.314 74.636C445.826 73.2736 447.396 72.0615 449.013 71.0135C452.555 69.0825 456.109 67.7613 459.876 67.0921C460.352 67.0098 460.789 66.8511 461.204 66.662C464.269 67.8314 467.348 69.021 470.435 70.2557C475.093 72.1141 479.761 74.0749 484.406 76.1579C484.907 76.3826 485.393 76.6007 485.862 76.8186C486.208 76.9773 486.553 77.1476 486.9 77.3063C484.98 77.8498 482.764 78.6973 480.613 80.2882C476.755 83.1094 474.799 86.7309 473.383 89.7221C472.905 90.7352 472.469 91.7084 472.027 92.6391C470.771 95.2804 471.964 98.4186 474.697 99.6441C477.428 100.868 480.663 99.7161 481.919 97.0747L481.916 97.0735C482.424 96.0052 482.864 95.0261 483.277 94.1583C484.563 91.4735 485.484 89.9782 487.207 88.6996C488.343 87.873 489.502 87.504 491.542 87.0463C493.519 86.5813 496.352 86.1374 499.409 84.4357C499.737 84.2523 500.037 84.04 500.309 83.804C500.603 83.9552 500.905 84.097 501.201 84.2501C505.199 86.3499 509.19 88.5242 513.125 90.7609C517.671 93.4021 522.083 96.1214 526.259 98.8896C529.915 101.465 532.926 103.951 535.289 106.259C537.425 108.521 539.277 110.68 541.15 112.703L541.637 113.165C544.07 115.205 546.7 116.879 549.52 118.491L550.035 118.75C552.257 119.718 554.584 120.306 557.485 120.984L557.584 121.008C560.407 121.605 564.189 122.39 568.968 123.403C571.955 124.109 575.137 124.9 578.378 125.793C581.569 126.692 584.81 127.717 587.924 128.862C590.865 129.945 593.661 131.094 596.329 132.291C596.505 132.369 596.661 132.439 596.801 132.504C599.419 133.854 601.885 135.291 604.192 136.774C608.261 139.872 611.664 142.835 614.598 145.673C616.124 147.194 617.561 148.716 618.911 150.228C618.745 150.166 618.585 150.113 618.419 150.05C617.099 149.385 615.775 148.753 614.473 148.169C610.724 146.495 607.259 145.198 604.378 144.485L604.277 144.464C601.226 143.778 598.288 143.267 595.427 142.917L595.285 142.903C592.401 142.626 589.564 142.492 586.759 142.539C581.285 142.631 576.214 143.242 571.456 144.26L571.221 144.316C566.854 145.45 562.771 146.905 558.906 148.602L558.688 148.7C555.098 150.464 551.665 152.366 548.176 154.201C545.256 155.642 542.64 157.534 540.31 159.719C537.27 162.456 534.744 165.689 532.698 169.209C532.101 170.229 531.55 171.286 531.035 172.361C530.218 174.088 529.507 175.867 528.899 177.679C527.437 182.038 526.529 186.562 526.097 190.989C525.664 195.44 525.744 199.827 526.384 203.933C526.808 206.542 527.258 209.096 527.783 211.626C528.495 215.164 529.413 218.701 530.644 222.16C527.696 219.765 524.776 217.292 521.771 214.674C519.702 212.857 517.273 210.823 514.453 208.591C511.779 206.471 508.774 204.168 505.423 201.696C502.908 198.783 501.776 196.671 500.966 194.418C500.408 192.414 499.835 190.419 499.295 188.466C498.831 186.682 498.496 184.885 498.361 183.121C498.439 181.206 498.67 179.249 499.021 177.275C499.605 174.22 500.486 171.098 501.634 168.019C502.594 165.431 503.695 162.862 504.899 160.328C505.157 159.785 505.423 159.24 505.691 158.695C507.22 155.614 508.838 152.642 510.557 149.83C512.228 147.02 514.012 144.43 515.907 142.125C517.777 139.852 519.782 137.88 521.929 136.2C523.985 134.627 526.249 133.314 528.707 132.298C531.468 131.154 532.748 128.057 531.563 125.378C530.373 122.698 527.175 121.448 524.412 122.595L524.409 122.59C521.053 123.979 517.946 125.786 515.125 127.948C512.261 130.181 509.702 132.72 507.386 135.536C505.093 138.322 503.02 141.345 501.15 144.492C499.281 147.552 497.518 150.789 495.876 154.105C495.586 154.694 495.295 155.29 495.008 155.893C493.69 158.665 492.468 161.51 491.388 164.415C490.049 168.013 489.015 171.687 488.302 175.384C487.848 177.934 487.558 180.451 487.467 182.98L487.476 183.5C487.477 183.526 487.48 183.55 487.484 183.574C487.143 183.499 486.802 183.422 486.461 183.362L486.22 183.326C483.805 183.001 481.613 182.372 479.516 181.432C478.788 181.105 478.064 180.737 477.349 180.327C475.286 178.324 473.226 175.684 471.162 172.513C471.152 172.364 471.162 172.216 471.135 172.064C470.635 168.945 470.135 165.496 470.026 162.162C469.957 158.873 470.28 155.699 471.133 153.246C471.754 151.616 472.445 149.999 473.203 148.405C474.564 145.541 476.139 142.766 477.908 140.188C480.572 136.24 483.666 132.833 487.071 130.052C489.366 128.177 489.652 124.85 487.711 122.619C485.769 120.39 482.333 120.104 480.041 121.98L480.039 121.979C475.779 125.462 472.001 129.643 468.812 134.365C466.726 137.408 464.891 140.65 463.313 143.97C462.434 145.82 461.631 147.697 460.909 149.589L460.865 149.71C460.446 150.908 460.129 152.116 459.88 153.324C456.635 149.771 453.019 146.652 448.895 144.238C447.368 143.348 445.809 142.556 444.24 141.852C441.477 140.613 438.667 139.642 435.875 138.874C431.772 137.743 427.79 136.812 423.957 135.972C420.413 135.056 417.133 134.097 414.191 132.934C413.731 132.751 413.262 132.555 412.792 132.344C409.717 130.97 406.615 129.042 403.396 126.91C401.451 125.565 399.447 124.179 397.351 122.814C396.552 121.889 395.826 120.897 395.216 119.864C394.591 118.805 394.068 117.699 393.662 116.604C393.057 114.329 392.75 112.358 392.64 110.82C392.574 108.205 392.954 106.264 393.414 104.346C393.827 102.855 394.512 100.532 395.455 98.178C396.142 96.9532 396.924 95.7581 397.663 94.8175C398.443 93.8376 399.237 93.1457 399.487 93.0053C402.01 91.4237 402.719 88.1588 401.083 85.7109C399.441 83.2651 396.068 82.5668 393.549 84.1502C391.691 85.3351 390.332 86.7804 389.046 88.3502C387.755 89.9899 386.656 91.7153 385.7 93.454L385.449 93.9822C384.197 97.0417 383.37 99.8833 382.894 101.597L382.855 101.749C382.288 104.044 381.635 107.215 381.756 111.151L381.764 111.342C381.85 112.61 382.025 113.994 382.29 115.469C380.167 114.836 378.07 114.332 376.014 113.889L375.772 113.844C370.634 112.975 365.465 112.539 359.829 111.98C356.497 111.629 353.191 111.342 349.954 111.021C346.776 110.706 343.671 110.303 340.623 109.76C337.51 109.186 334.391 108.55 331.272 107.784C328.147 107.017 325.023 106.123 321.846 105.023C318.39 103.833 314.846 102.609 311.25 101.425C308.053 94.9534 307.273 85.7924 306.704 77.5276C306.165 70.898 307.929 60.6084 311.429 53.3619C313.002 50.0184 314.932 47.346 316.737 45.8543C319.009 43.947 319.249 40.6149 317.277 38.414C315.307 36.2078 311.869 35.9652 309.602 37.8698L309.599 37.8685C306.117 40.8108 303.567 44.6796 301.535 48.9255C297.181 58.2044 295.238 69.3949 295.843 78.255C296.281 83.7641 296.675 90.1903 298.192 96.5809C298.059 96.6371 297.92 96.6735 297.789 96.7387C297.582 96.8513 297.218 96.9963 296.789 97.1508C291.791 95.8938 286.742 94.8987 281.697 94.37L263.346 91.6129C258.232 90.6922 253.863 91.1521 250.209 91.4138C248.447 91.5443 246.86 91.6327 245.316 91.6097C241.363 91.6963 239.135 90.8208 236.244 89.6662C235.946 89.5437 235.636 89.4382 235.345 89.3075C233.76 88.5968 232.265 87.7598 230.835 86.8019C228.063 84.9468 225.502 82.6678 223.166 80.1272ZM280.008 134.26C281.31 134.843 282.606 135.354 283.894 135.805C288.235 137.363 292.657 138.276 297.009 138.596C299.193 138.756 301.37 138.761 303.528 138.623C305.626 138.496 307.753 138.256 309.879 137.928C313.975 137.253 317.359 135.802 320.358 134.293C323.446 132.733 326.06 131.128 328.677 129.891L328.965 129.745C331.951 128.067 335.247 125.42 338.538 123.121C339.969 122.191 341.326 121.526 342.228 121.248C342.678 121.103 343.004 121.056 343.128 121.051L343.131 121.051C344.081 121.354 345.053 121.37 345.968 121.18C346.935 121.295 347.904 121.421 348.871 121.516C350.658 121.694 352.429 121.86 354.188 122.027C347.177 127.822 339.854 133.292 332.035 137.38C321.022 143.135 309.253 146.548 295.979 145.661C292.269 145.415 288.283 144.476 284.937 142.967C281.873 141.601 279.381 139.775 277.857 137.811C276.52 136.06 275.801 134.316 275.768 132.077C277.171 132.889 278.587 133.622 280.008 134.26ZM279.021 121.568C280.068 119.536 281.281 117.556 282.576 115.831C283.135 115.194 284.1 114.374 285.431 113.451C286.75 112.525 288.44 111.53 290.371 110.555C292.437 109.713 294.537 108.955 296.475 108.296C296.655 108.247 296.828 108.198 297.006 108.15C304.026 110.074 311.194 112.523 318.21 114.958C321.439 116.077 324.599 116.98 327.711 117.766C326.029 118.982 324.582 120.004 323.702 120.493C320.484 122.043 317.82 123.677 315.325 124.928C312.749 126.223 310.528 127.113 308.084 127.517C306.31 127.789 304.526 127.989 302.8 128.096C301.116 128.201 299.464 128.197 297.799 128.075C294.451 127.83 291.043 127.13 287.612 125.897C286.552 125.527 285.546 125.131 284.557 124.688C282.673 123.843 280.826 122.814 279.021 121.568ZM139.111 182.798C148.433 169.37 163.085 160.58 179.532 154.046C182.932 152.639 187.148 151.251 191.349 149.298C192.091 149.56 192.895 149.687 193.733 149.61C198.232 149.185 202.442 148.237 206.104 147.67C209.737 147.169 213.412 147.094 216.732 147.484C219.513 147.802 222.022 148.431 224.143 149.312C224.149 149.334 224.148 149.356 224.155 149.377C225.107 152.771 224.724 155.065 223.557 157.63C221.655 161.817 216.653 166.172 211.688 170.813C207.524 174.753 203.929 176.793 199.846 178.161C196.764 179.185 193.297 179.782 189.176 180.223L192.209 173.842C193.467 171.195 192.272 168.061 189.539 166.835C186.809 165.611 183.578 166.761 182.32 169.407L182.317 169.406C181.249 171.654 180.181 173.899 179.114 176.153C178.265 177.939 178.557 179.937 179.665 181.43C174.841 182.491 170.559 184.259 166.558 185.741C161.131 187.79 156.295 189.336 151.279 189.168C149.431 189.14 147.243 188.523 144.34 187.916L144.341 187.915C142.081 187.417 139.61 186.752 136.808 186.458C137.552 185.168 138.314 183.937 139.111 182.798ZM129.748 200.021C130.289 199.004 130.812 197.989 131.326 196.979C131.849 196.976 132.295 196.93 132.59 196.875L132.746 196.851C133.443 196.715 133.712 196.657 133.789 196.646C133.805 196.648 133.842 196.654 133.923 196.677L135.138 196.89C136.811 196.985 139.142 197.554 141.902 198.191L142.041 198.22C144.253 198.635 147.184 199.58 150.974 199.716C158.528 199.933 164.907 197.673 170.513 195.581C176.144 193.444 181.094 191.492 185.888 191.128C192.156 190.613 197.82 189.982 203.388 188.149C208.953 186.324 214.239 183.219 219.331 178.349C223.802 174.005 229.949 169.247 233.447 162.065C233.653 161.644 233.834 161.202 234.013 160.76C234.069 161.061 234.145 161.335 234.187 161.652C234.597 164.736 234.254 167.477 233.301 170.221C233.045 170.944 232.746 171.672 232.404 172.39C231.446 174.406 230.138 176.421 228.533 178.394C226.284 181.184 223.538 183.811 220.505 186.184C217.472 188.56 214.147 190.702 210.76 192.571C206.977 194.65 203.631 195.638 199.805 196.454C196.014 197.265 191.754 197.823 186.747 199.019C182.46 200.016 178.786 201.466 175.446 202.659C172.074 203.879 169.052 204.854 165.917 205.267C162.206 205.759 158.486 205.782 154.724 205.59C151.118 205.389 147.541 204.93 143.953 204.511C140.928 204.147 137.493 203.955 134.382 203.468C132.152 203.126 130.096 202.611 128.661 201.994C129.03 201.337 129.397 200.678 129.748 200.021ZM64.1668 280.806C64.1799 280.061 64.2259 279.284 64.2984 278.481C64.4115 278.229 64.5226 277.96 64.637 277.72C65.2873 276.351 65.9689 275.141 66.6976 274.059C67.8079 272.422 68.9814 270.996 70.227 269.749C72.7174 267.26 75.4837 265.447 78.9379 263.978C80.6854 263.236 82.6292 262.577 84.8074 261.966C87.0066 261.34 89.3945 260.778 91.9959 260.268C94.1716 259.851 96.6206 259.667 99.0892 259.753C101.51 259.846 103.986 260.226 106.281 260.861C107.486 261.203 108.689 261.639 109.812 262.142C110.526 262.462 111.188 262.812 111.822 263.176C106.493 273.749 100.698 281.07 90.1005 285.448C84.5009 287.732 79.4102 289.067 73.4559 289.316C70.8284 289.447 67.6963 289.265 64.1596 289.928C64.149 286.901 64.1139 283.849 64.1668 280.806ZM118.877 272.935C119.008 274.446 118.867 276.158 118.262 278.176C117.588 280.374 116.804 282.385 115.927 284.231C115.833 284.434 115.719 284.66 115.593 284.924C114.605 286.906 113.488 288.716 112.262 290.357C111.042 291.992 109.72 293.453 108.27 294.805C106.819 296.153 105.238 297.399 103.509 298.581C101.797 299.745 99.9326 300.837 97.9173 301.886C95.9379 302.904 93.792 303.884 91.5055 304.834C89.1488 305.812 86.5695 306.699 84.0292 307.278C81.4936 307.78 78.8483 308.069 76.1735 308.123C73.3101 308.193 70.3627 308.109 67.388 307.89C65.8585 307.784 64.344 307.661 62.8605 307.506C63.3232 305.492 63.6187 303.458 63.8059 301.419C64.4179 300.797 65.0097 300.6 66.2723 300.281C67.9693 299.913 70.6915 299.969 73.9396 299.858C81.3804 299.564 87.97 297.792 94.3576 295.17C106.016 290.443 113.392 282.355 118.877 272.935ZM77.4381 394.023C71.4964 395.161 65.6723 396.202 59.8973 396.581C56.1447 396.836 52.1733 397.248 48.6797 397.109C46.3505 396.971 44.3223 396.554 42.7754 395.853C42.0442 395.525 41.4094 395.143 40.8407 394.684C40.663 394.574 39.7119 393.46 38.9042 391.999C38.0629 390.533 37.2385 388.707 36.6337 386.993C36.0773 385.426 35.7128 383.918 35.5949 382.826C35.5732 382.622 35.5657 382.454 35.5593 382.286C35.9638 382.277 36.386 382.296 36.7803 382.274C41.0529 382.006 45.1635 381.272 49.1325 380.276C53.113 379.28 56.9257 378.008 60.6008 376.696C64.259 375.38 67.8018 374.035 71.2435 372.829C74.6911 371.615 78.0364 370.551 81.2763 369.768C84.874 368.911 86.8309 369.265 87.9435 369.764C88.9597 370.232 89.72 370.941 90.5124 372.416C92.7081 376.232 92.7296 384.599 92.1729 391.224C87.2128 392.12 82.309 393.092 77.4381 394.023ZM196.118 370.008C192.644 370.854 188.907 371.766 184.938 372.729C180.82 373.733 176.671 374.74 172.518 375.75C166.293 377.265 160.074 378.783 153.858 380.263C149.797 381.228 145.738 382.143 141.679 383.026C141.879 379.731 142.02 376.721 142.227 374.364C142.557 370.546 143.057 367.143 144.465 364.204C144.784 363.533 145.14 362.895 145.55 362.273L145.68 362.07C147.128 359.68 148.993 358.014 151.496 356.396C153.961 354.744 156.958 353.315 160.283 351.675C162.964 350.355 165.955 349.206 168.959 348.564C171.816 348.078 174.94 348.113 177.966 348.755C180.272 349.239 182.466 349.919 184.477 350.82C185.398 351.233 186.269 351.683 187.088 352.179L187.184 352.235C189.894 353.805 192.179 355.831 194 358.57L194.075 358.689C196.233 361.772 198.294 364.875 200.343 368.016C200.517 368.287 200.692 368.571 200.864 368.844C199.305 369.225 197.73 369.612 196.118 370.008ZM261.427 392.27C257.916 395.107 254.011 396.552 247.782 395.951C242.952 395.429 238.918 394.3 235.402 392.726C234.385 392.27 233.408 391.775 232.471 391.244C228.35 388.659 224.922 385.383 221.79 381.426C219.699 378.563 217.708 375.481 215.741 372.275C213.675 368.989 211.659 365.706 209.565 362.434C207.472 359.222 205.358 356.04 203.122 352.84C200.352 348.666 196.727 345.475 192.755 343.187C191.535 342.453 190.287 341.813 189.027 341.248C186.182 339.972 183.222 339.064 180.248 338.443C175.738 337.491 171.152 337.444 166.827 338.216L166.648 338.251C162.469 339.139 158.65 340.633 155.316 342.271C152.128 343.86 148.711 345.437 145.381 347.648C142.129 349.728 138.777 352.584 136.316 356.661C135.641 357.693 135.066 358.733 134.574 359.769C132.282 364.613 131.747 369.378 131.379 373.438C131.123 376.369 130.984 379.698 130.76 383.213C130.535 386.738 130.24 390.385 129.656 393.797C129.174 396.752 128.416 399.45 127.341 401.711C127.183 402.043 127.022 402.36 126.858 402.659C125.516 405.106 123.842 406.952 121.488 408.325C116.702 411.016 113.116 410.858 110.066 409.551C105.582 407.604 102.043 401.932 102.721 395.152C103.18 390.38 103.797 383.712 102.987 377.217C102.566 373.962 101.801 370.71 100.226 367.673C98.6744 364.661 96.1192 361.799 92.4957 360.186C88.5046 358.397 83.7673 358.274 78.6204 359.527C74.8325 360.442 71.1397 361.635 67.5119 362.909C63.891 364.178 60.3246 365.532 56.7979 366.799C53.295 368.053 49.8197 369.201 46.3786 370.061C42.9173 370.931 39.485 371.529 36.074 371.743C33.5169 371.906 29.6868 371.522 26.1032 370.582C24.2357 370.069 22.3416 369.41 20.6302 368.64C19.1669 367.987 17.8325 367.252 16.6996 366.471C14.1834 364.714 12.6001 362.85 11.8123 360.512L11.7214 360.265C10.7986 357.897 10.426 354.526 11.7271 349.203C12.0761 348.027 12.5091 346.901 13.029 345.807C14.0723 343.612 15.4544 341.567 17.2283 339.607C20.0284 336.726 23.3724 334.376 27.0731 332.518C30.8441 330.872 34.9643 329.645 39.0393 328.546C43.3345 327.6 47.4917 326.493 51.29 324.483L51.714 324.232C54.5718 322.372 56.8705 320.101 58.6141 317.594C61.314 317.96 64.0057 318.227 66.6117 318.413C69.8956 318.652 73.1991 318.751 76.4596 318.673C79.8127 318.602 83.1552 318.236 86.4038 317.58L86.5427 317.551C89.874 316.79 93.0124 315.696 95.8197 314.529C98.3229 313.489 100.739 312.394 103.068 311.196C105.414 309.974 107.648 308.67 109.782 307.218C111.915 305.765 113.94 304.179 115.825 302.42C117.722 300.652 119.485 298.707 121.089 296.556C122.698 294.4 124.15 292.046 125.424 289.485C125.556 289.208 125.683 288.954 125.82 288.667C126.924 286.344 127.886 283.855 128.704 281.187C129.852 277.404 130.105 273.712 129.512 270.296C128.904 266.874 127.474 263.786 125.508 261.174C123.538 258.552 121.058 256.402 118.321 254.669C117.022 253.859 115.706 253.174 114.361 252.571C112.726 251.838 111.028 251.227 109.294 250.73C106.061 249.837 102.763 249.342 99.4788 249.208C96.1718 249.095 92.9244 249.334 89.8362 249.921C86.9553 250.486 84.2657 251.115 81.7306 251.841C79.2306 252.54 76.8408 253.342 74.5611 254.309C73.3538 254.816 72.1834 255.383 71.0454 255.994C71.2176 255.62 71.383 255.239 71.56 254.867C73.9486 249.841 76.6766 245.107 79.3056 241.245C82.4837 236.507 88.1845 232.585 94.904 228.944C101.594 225.275 109.118 221.936 115.585 217.451C118.354 215.514 120.656 213.271 122.661 210.875C123.073 211.092 123.484 211.3 123.9 211.486C126.801 212.778 129.811 213.426 132.679 213.884C133.889 214.068 135.078 214.213 136.223 214.337C134.7 217.42 133.46 219.365 131.461 220.865C129.093 222.655 128.671 225.967 130.526 228.267C131.078 228.956 131.772 229.476 132.536 229.818C134.327 230.621 136.504 230.452 138.166 229.197C142.864 225.646 144.984 221.154 146.905 217.138L147.012 216.912C147.226 216.463 147.343 215.998 147.42 215.533C149.566 215.772 151.801 215.992 154.152 216.124C158.358 216.337 162.788 216.331 167.417 215.719C171.89 215.127 175.734 213.818 179.254 212.554C182.794 211.276 186.012 210.037 189.349 209.268C193.717 208.217 197.776 207.684 202.161 206.76C206.516 205.844 211.209 204.487 216.167 201.742C219.99 199.629 223.796 197.192 227.364 194.398C230.935 191.598 234.264 188.445 237.105 184.921C239.142 182.419 240.92 179.718 242.295 176.825C242.79 175.783 243.228 174.723 243.604 173.653C245.057 169.534 245.628 165.024 244.986 160.346C244.408 155.734 242.606 151.612 239.968 148.311C237.406 144.968 234.101 142.416 230.5 140.556C230.059 140.333 229.65 140.138 229.233 139.951C225.716 138.377 221.908 137.461 217.994 137.008C214.019 136.548 209.891 136.618 205.762 137.096C205.875 136.877 206.001 136.657 206.106 136.436C209.209 129.491 208.578 123.494 210.312 119.205C210.584 118.444 210.902 117.681 211.268 116.911C213.878 111.369 218.85 105.914 224.504 102.902C227.652 101.246 230.854 100.295 234.124 100.195C235.18 100.561 236.263 100.892 237.378 101.174C239.378 101.681 241.28 101.952 243.082 102.08C243.987 102.338 244.913 102.357 245.791 102.167C247.68 102.168 249.448 102.055 251.075 101.935C254.968 101.634 258.123 101.374 261.484 102.005L261.678 102.035L279.345 104.69C279.247 104.759 279.14 104.824 279.043 104.893C277.273 106.132 275.571 107.469 274.093 109.193L273.903 109.433C271.807 112.196 269.982 115.26 268.49 118.399C268.34 118.715 268.188 119.041 268.038 119.38C266.471 122.848 265.25 126.513 264.94 130.265C264.491 135.563 266.241 140.465 269.189 144.175C272.133 147.915 276.101 150.614 280.386 152.542C285.103 154.65 290.251 155.842 295.251 156.187C310.965 157.257 324.972 153.102 337.233 146.665C349.286 140.336 359.586 131.64 368.95 123.537C370.641 123.742 372.288 123.96 373.855 124.225C377.474 125.007 380.726 125.887 383.776 127.254C384.484 127.572 385.19 127.92 385.89 128.306C389.694 130.372 393.342 132.899 397.128 135.518L397.22 135.58C400.599 137.814 404.2 140.1 408.243 141.916C408.848 142.188 409.469 142.451 410.104 142.701C413.75 144.142 417.486 145.207 421.241 146.185L421.449 146.233C425.225 147.06 429.049 147.953 432.923 149.022C435.245 149.659 437.517 150.449 439.69 151.423C440.923 151.979 442.125 152.592 443.294 153.273C446.318 155.036 449.153 157.435 451.845 160.404C454.95 165.031 457.656 170.154 460.176 175.266L460.391 175.661C463.378 180.59 466.528 184.855 470.219 188.31L471.134 188.999C472.366 189.739 473.64 190.412 474.966 191.006C477.999 192.367 481.234 193.294 484.626 193.759C485.692 193.957 486.65 194.253 487.476 194.624C488.643 195.153 489.535 195.795 490.251 196.628C490.349 196.939 490.463 197.254 490.574 197.571C490.582 197.599 490.591 197.628 490.598 197.655C490.606 197.686 490.625 197.712 490.634 197.743C491.888 201.246 493.957 205.027 497.546 208.99L498.369 209.735C501.819 212.274 504.883 214.619 507.578 216.754C510.257 218.874 512.543 220.793 514.496 222.501C518.315 225.828 522.077 229.058 526.015 232.159C527.229 233.13 528.47 234.091 529.726 235.046C529.352 235.451 529.017 235.898 528.779 236.423C528.564 236.899 528.356 237.356 528.151 237.787C526.088 242.116 523.649 245.897 520.844 249.277C517.717 252.491 513.989 255.134 509.715 257.277C505.969 258.635 502.052 259.364 497.935 259.512C493.392 259.469 488.657 259.094 483.796 258.641L483.406 258.62C478.108 258.495 472.666 258.91 467.245 260.307L466.402 260.597C461.236 262.855 456.326 265.795 451.616 268.991C447.34 271.966 443.263 274.72 439.271 277.099C435.502 279.011 431.705 280.428 427.895 281.38C424.028 281.874 420.104 281.98 416.093 281.768C411.867 281.257 407.574 280.521 403.216 279.651C399.984 278.97 395.093 277.242 390.099 276.107L389.925 276.071C384.897 275.185 379.203 274.567 373.984 278.081C371.154 280.178 369.573 282.81 368.383 285.289C366.512 289.295 365.451 293.356 364.135 296.049C363.955 296.433 363.773 296.787 363.593 297.106C359.733 304.048 356.077 308.885 351.899 311.727C347.72 314.552 342.696 315.991 334.477 315.646L334.354 315.638C327.732 315.472 321.57 314.081 315.29 311.603C314.513 311.302 313.732 310.967 312.898 310.593C311.534 309.982 310.07 309.281 308.508 308.581C306.781 307.806 304.925 307.031 302.896 306.422C298.132 304.869 291.507 304.518 285.58 308.372C281.983 310.505 279.457 313.58 277.948 316.796C276.388 320.095 275.756 323.515 275.476 326.794C274.957 333.276 275.756 339.562 275.481 343.813C275.251 347.846 274.878 353.478 274.04 359.708C273.633 362.911 273.111 366.191 272.434 369.442C271.76 372.68 270.915 375.871 269.876 378.835C269.346 380.296 268.753 381.746 268.11 383.101C266.261 386.998 263.99 390.147 261.427 392.27ZM557.241 258.739C553.628 262.764 550.368 266.037 545.948 268.022C534.451 273.269 521.204 275.124 507.746 280.823C490.268 288.323 471.33 293.027 452.606 299.315C428.003 307.59 403.097 316.402 378.439 324.546C352.497 333.117 325.77 341.678 299.027 346.355C294.797 347.094 290.484 347.648 286.112 348.221C286.207 346.838 286.286 345.556 286.351 344.42C286.638 338.728 285.874 332.714 286.326 327.677C286.532 325.144 287.029 322.921 287.84 321.232C288.655 319.556 289.644 318.369 291.339 317.34L291.483 317.251C294.487 315.462 296.281 315.592 299.697 316.499C301.006 316.892 302.44 317.473 303.958 318.154C305.346 318.776 306.809 319.476 308.348 320.166C309.273 320.581 310.235 320.998 311.246 321.388C318.479 324.254 326.052 325.996 334.107 326.188C343.81 326.662 351.834 324.748 358.204 320.344C364.594 315.934 368.991 309.611 373.164 302.158C373.472 301.613 373.758 301.048 374.025 300.484C375.888 296.508 376.94 292.458 378.275 289.724C379.076 288.006 379.908 286.96 380.507 286.543C380.927 286.046 383.719 285.582 387.677 286.387C391.793 287.299 396.542 288.994 400.959 289.968C405.67 290.907 410.312 291.705 414.985 292.263L415.342 292.294C420.116 292.555 424.912 292.433 429.709 291.792L430.3 291.682C435.128 290.504 439.888 288.727 444.528 286.355L444.837 286.183C449.249 283.56 453.574 280.631 457.933 277.604C462.103 274.768 466.34 272.249 470.501 270.391C474.512 269.41 478.691 269.07 483.007 269.16C487.936 269.617 492.946 270.02 498.002 270.066L498.237 270.063C503.601 269.884 508.879 268.905 513.91 267.031L514.43 266.805C519.863 264.126 524.792 260.662 528.954 256.341L529.205 256.065C532.62 251.974 535.59 247.379 538.041 242.222C538.212 241.863 538.369 241.517 538.527 241.169C542.472 243.727 546.734 246.226 551.21 248.448C552.465 249.07 553.735 249.675 555.029 250.254C557.301 251.274 559.625 252.203 561.988 253.043C562.113 253.094 562.233 253.148 562.357 253.199C560.495 255.077 558.837 256.981 557.241 258.739ZM625.975 215.484L625.907 215.627C623.962 219.707 621.947 223.451 619.807 226.769C618.054 229.44 616.171 231.835 614.151 233.976C613.844 234.226 613.573 234.52 613.324 234.836C613.197 234.962 613.078 235.101 612.95 235.225C611.502 236.643 609.957 237.928 608.315 239.108C607.907 239.313 607.476 239.518 607.027 239.719C605.261 240.473 603.225 241.191 601.127 241.799C599.085 242.359 596.992 242.843 595.074 243.226C593.23 243.613 591.395 243.89 589.619 244.145C587.748 244.419 586.006 244.698 584.412 245.041L584.219 245.088C582.526 245.515 580.882 245.773 579.287 245.861C577.818 245.945 576.336 245.872 574.847 245.688C572.829 245.287 570.806 244.781 568.777 244.164C567.717 243.841 566.66 243.451 565.601 243.075C565.35 242.967 565.102 242.87 564.852 242.758C561.496 241.253 558.14 239.281 554.879 237.075C544.46 229.952 540.962 221.255 538.454 209.568C537.972 207.25 537.548 204.838 537.142 202.349C536.66 199.261 536.574 195.684 536.936 192.004C537.294 188.299 538.064 184.501 539.253 180.966C539.74 179.513 540.298 178.122 540.927 176.797C541.319 175.972 541.74 175.178 542.185 174.409C543.769 171.681 545.67 169.294 547.795 167.398L547.901 167.306C549.577 165.729 551.358 164.475 553.211 163.566L553.359 163.492C556.94 161.607 560.269 159.77 563.511 158.174C566.839 156.72 570.301 155.492 574.007 154.524C578.021 153.678 582.29 153.169 586.98 153.087C589.264 153.047 591.643 153.155 594.134 153.393C596.588 153.69 599.145 154.134 601.846 154.742C603.619 155.178 606.706 156.291 609.922 157.745C611.148 158.29 612.403 158.892 613.649 159.524L614.183 159.761C619.246 161.678 624.045 163.124 626.085 164.062C626.087 164.063 626.11 164.074 626.154 164.095C626.626 164.359 626.833 164.548 627.364 165.339C627.837 166.055 628.386 167.26 629.275 168.771C629.99 170.682 630.667 172.587 631.149 174.686C631.654 177.327 631.94 180.119 631.817 183.002C631.757 184.362 632.253 185.614 633.087 186.588C633.109 188.484 633.044 190.382 632.869 192.275C632.519 196.223 631.747 200.14 630.585 204.008C629.594 207.291 628.388 210.495 626.914 213.595C626.618 214.219 626.304 214.848 625.975 215.484ZM616.912 195.118C617.171 192.206 616.926 189.32 616.055 186.616C615.266 184.29 614.003 182.205 612.354 180.433L612.214 180.286C610.806 178.882 609.202 177.673 607.477 176.598C605.899 175.646 604.275 174.81 602.57 174.046C602.367 173.955 602.137 173.851 601.884 173.744C600.028 172.934 598.117 172.236 596.304 171.649L596.166 171.608C593.432 170.799 590.631 170.332 587.805 170.294L587.579 170.297C584.779 170.376 581.978 170.85 579.206 171.596C576.863 172.258 574.527 173.052 572.23 174.055C569.818 175.161 567.667 176.461 565.703 177.966C563.737 179.506 562.041 181.201 560.591 183.055L560.497 183.177C559.368 184.717 558.4 186.36 557.585 188.074C557.573 188.099 557.532 188.183 557.475 188.316C556.704 190.035 556.044 191.89 555.61 193.879L555.544 194.235C555.251 196.258 555.226 198.289 555.425 200.282L555.439 200.406C555.747 202.868 556.216 205.162 556.634 207.262C556.932 209.256 557.155 211.28 557.363 213.299C557.432 214.567 557.447 215.873 557.516 217.257C557.615 219.502 557.953 222.107 559.279 224.72L559.446 225.024C560.849 227.399 563.032 229.644 565.933 231.337C566.888 231.881 567.811 232.345 568.751 232.766C569.623 233.157 570.501 233.51 571.382 233.834C572.848 234.365 574.289 234.806 575.711 235.221L575.925 235.279C578.469 235.912 580.972 236.111 583.327 235.982L583.573 235.965C585.484 235.772 587.202 235.531 588.612 235.389C591.6 235.08 593.759 232.48 593.432 229.582C593.103 226.687 590.416 224.59 587.428 224.9C585.778 225.07 584.157 225.293 582.581 225.454C581.344 225.512 580.042 225.406 578.704 225.085C577.429 224.712 576.244 224.343 575.206 223.966C574.543 223.722 573.892 223.46 573.3 223.195C572.646 222.901 572.045 222.597 571.509 222.291C570.2 221.505 569.495 220.747 568.96 219.909C568.654 219.24 568.453 218.281 568.393 216.82C568.332 215.611 568.314 214.221 568.231 212.654L568.211 212.405C567.991 210.293 567.75 208.048 567.405 205.722L567.359 205.47C566.927 203.318 566.504 201.216 566.251 199.186C566.145 198.07 566.163 196.969 566.3 195.916C566.562 194.787 566.959 193.663 567.47 192.532L567.492 192.475C568.017 191.374 568.626 190.348 569.295 189.418C570.204 188.258 571.272 187.186 572.515 186.211C573.796 185.233 575.245 184.356 576.818 183.635C578.457 182.921 580.331 182.275 582.218 181.742C584.194 181.207 586.125 180.899 587.817 180.847C589.453 180.879 591.167 181.155 593.001 181.696C594.49 182.182 596.031 182.749 597.492 183.388C597.682 183.467 597.841 183.539 598.02 183.619C599.356 184.218 600.595 184.862 601.688 185.519C602.728 186.162 603.644 186.875 604.32 187.538C604.997 188.29 605.4 188.982 605.692 189.819C606.049 190.938 606.223 192.4 606.06 194.229C605.932 195.857 605.564 197.509 604.849 199.269C604.119 200.74 603.282 202.093 602.239 203.378C600.972 204.693 599.469 205.882 597.876 206.799C596.058 207.714 594.403 208.257 593.048 208.457C591.771 208.576 590.794 208.471 589.61 208.019C587.986 207.005 587.259 206.199 587.028 205.831C586.713 205.28 586.798 205.391 586.783 205.114C586.792 204.778 587.005 203.918 587.637 202.558L587.682 202.442C587.724 202.347 587.801 202.177 587.913 201.942C588.5 200.708 589.315 199.193 590.206 197.467C591.547 194.863 590.451 191.693 587.76 190.386C585.075 189.077 581.803 190.129 580.462 192.734C579.624 194.355 578.778 195.921 578.024 197.508C577.914 197.739 577.777 198.026 577.623 198.384C576.831 200.165 576.094 202.048 575.919 204.348C575.708 206.65 576.394 209.319 577.839 211.464C579.335 213.731 581.484 215.542 584.265 217.209L584.919 217.544C587.957 218.868 591.247 219.287 594.312 218.941L594.483 218.92C597.472 218.503 600.324 217.48 603.068 216.083L603.289 215.968C605.961 214.445 608.35 212.547 610.389 210.405L610.629 210.131C612.366 208.022 613.713 205.813 614.786 203.61L614.916 203.323C616.072 200.531 616.704 197.761 616.912 195.118ZM246.805 298.247C256.549 292.98 267.635 283.911 274.396 273.305C275.356 271.78 276.225 270.215 276.988 268.609C281.687 259.079 282.125 247.165 274.212 236.898C271.007 232.607 266.819 229.521 262.306 227.509C255.508 224.478 248.063 223.681 240.888 223.741C228.768 223.872 216.628 227.13 209.163 228.582L208.965 228.625C199.29 230.907 190.022 235.426 182.423 241.872C178.922 244.854 175.791 248.261 173.155 252.065C172.464 252.48 171.849 253.033 171.392 253.744L171.39 253.743C170.892 254.523 170.453 255.304 170.075 256.098C169.518 257.25 169.105 258.44 168.846 259.637C167.819 261.885 166.939 264.233 166.246 266.686C164.024 274.406 164.699 281.559 167.897 287.272C171.072 292.996 176.357 296.999 182.32 299.732L182.698 299.901C188.596 302.539 195.263 304.068 202.127 304.816C209.152 305.573 216.399 305.478 223.217 304.717C232.397 303.635 240.695 301.52 246.805 298.247ZM179.476 263.17C179.445 263.017 179.42 262.854 179.411 262.67C181.897 257.727 185.368 253.434 189.619 249.808C195.771 244.577 203.513 240.777 211.5 238.893C219.49 237.287 230.856 234.364 241.023 234.289C247.269 234.218 253.167 235.004 257.756 237.081C260.827 238.467 263.352 240.348 265.424 243.098C266.034 243.925 266.56 244.746 267.027 245.558C262.432 253.978 255.332 260.244 246.813 264.793C237.615 269.699 226.804 272.478 216.437 273.449C205.767 274.425 198.938 274.56 190.342 270.747C186.649 269.129 182.766 267.158 180.926 265.324C179.985 264.419 179.606 263.708 179.476 263.17ZM203.308 294.333C197.328 293.687 191.714 292.339 187.247 290.329L186.913 290.179C182.409 288.112 179.213 285.439 177.489 282.309C176.386 280.272 175.742 277.914 175.853 274.935C176.01 275.051 176.168 275.173 176.327 275.284C179.492 277.47 182.913 279.023 185.792 280.32L185.934 280.384C196.893 285.298 206.741 284.996 217.521 283.949C229.111 282.852 241.26 279.792 252.073 274.042C257.835 270.982 263.22 267.109 267.852 262.368C267.619 262.964 267.373 263.565 267.098 264.175C266.525 265.382 265.857 266.586 265.101 267.786C259.845 276.214 249.633 284.715 241.496 289.021C237.425 291.261 230.045 293.325 221.92 294.238C215.902 294.912 209.398 294.99 203.308 294.333ZM299.755 216.307L299.767 216.482C300.165 220.535 301.398 224.399 303.374 227.899C305.35 231.392 307.991 234.487 311.058 237.154L311.257 237.322C314.083 239.55 317.202 241.385 320.492 242.86C320.942 243.061 321.383 243.25 321.811 243.431L321.9 243.468C325.613 244.945 329.483 246.004 333.385 246.72C338.237 247.673 343.224 248.239 348.171 248.402C351.958 248.619 355.727 248.662 359.485 248.501C363.23 248.342 366.94 247.997 370.611 247.493L370.763 247.467C374.454 246.856 378.063 246.035 381.587 245.078C385.094 244.125 388.518 243.06 391.874 241.934C398.868 239.644 404.615 236.55 409.83 232.844C415.093 229.243 419.989 224.823 425.302 219.599L425.433 219.466C430.177 214.452 434.305 208.542 437.298 202.245C437.611 201.587 437.909 200.935 438.191 200.289L438.295 200.03C440.934 192.941 442.007 185.645 440.703 178.749L440.67 178.592C439.215 172.016 435.883 165.919 430.518 161.4C428.178 159.422 425.493 157.74 422.511 156.403C418.778 154.73 414.582 153.589 409.978 153.018C405.051 152.402 400.197 151.831 395.349 151.502C390.456 151.211 385.623 151.231 380.756 151.599C375.891 151.968 370.852 152.69 365.658 153.826C360.384 154.836 354.982 156.245 349.657 157.925C344.219 159.643 338.954 161.757 333.973 164.349C329.032 166.922 324.344 169.91 319.942 173.319L319.941 173.32C316.756 175.769 314.027 178.357 311.602 181.173C309.166 183.999 307.068 187.034 304.992 190.387C304.219 191.635 303.54 192.875 302.951 194.114C301.434 197.298 300.525 200.452 300.026 203.528C299.348 207.893 299.481 212.041 299.755 216.307ZM417.758 204.158C419.636 202.771 421.509 201.333 423.324 199.84C425.129 198.355 426.851 196.81 428.475 195.205C428.356 195.551 428.249 195.898 428.12 196.247C427.889 196.776 427.653 197.298 427.409 197.811C424.944 203.004 421.427 208.064 417.468 212.251C412.382 217.257 407.947 221.204 403.457 224.273C398.872 227.519 394.282 229.986 388.318 231.952C385.092 233.037 381.877 234.035 378.624 234.916C375.418 235.788 372.198 236.52 368.965 237.058C365.658 237.512 362.328 237.817 358.978 237.961C355.619 238.106 352.225 238.065 348.772 237.869L348.62 237.858C344.253 237.726 339.817 237.225 335.45 236.368C332.139 235.76 328.982 234.887 326.05 233.723C325.697 233.574 325.361 233.431 325.041 233.288C322.541 232.167 320.251 230.812 318.235 229.239C316.474 227.696 314.989 226.014 313.805 224.257C315.004 224.968 316.255 225.618 317.548 226.198L317.587 226.215C318.906 226.807 320.265 227.327 321.658 227.783L321.77 227.817C326.041 229.114 330.517 229.853 335.054 230.091C339.355 230.278 343.522 230.467 347.598 230.568C353.624 230.634 359.583 230.354 365.666 229.38C371.679 228.421 377.748 226.901 383.805 224.592C387.794 223.148 391.825 221.384 395.73 219.326C399.618 217.277 403.359 214.904 406.909 212.29C408.771 211.013 410.616 209.678 412.427 208.284C414.173 206.968 415.971 205.581 417.758 204.158ZM314.332 195.827C316.234 192.76 318.016 190.21 319.968 187.946C321.933 185.666 324.085 183.622 326.739 181.581L323.349 177.447L326.756 181.568C330.633 178.563 334.772 175.928 339.147 173.647C343.484 171.389 348.15 169.506 353.057 167.96C358.049 166.38 363.083 165.074 367.876 164.16L368.029 164.129C372.733 163.1 377.268 162.45 381.631 162.119C385.973 161.788 390.283 161.772 394.669 162.03C399.091 162.33 403.742 162.872 408.617 163.48C412.251 163.933 415.339 164.802 417.96 165.977C418.71 166.314 419.409 166.683 420.084 167.07C420.348 167.942 420.839 168.738 421.513 169.374C422.888 171.485 423.844 173.46 424.391 175.211C424.851 176.78 425.056 178.316 425.057 179.781C424.791 180.867 424.411 181.918 423.923 182.953C423.143 184.595 422.067 186.207 420.708 187.798C419.355 189.141 417.861 190.476 416.267 191.787C414.599 193.161 412.836 194.517 411.031 195.846L410.866 195.971C409.16 197.331 407.422 198.668 405.683 199.981C403.976 201.294 402.274 202.528 400.552 203.707L400.397 203.819C397.225 206.16 393.905 208.264 390.509 210.055C387.071 211.865 383.499 213.431 379.886 214.739C374.528 216.778 369.223 218.112 363.863 218.97C358.582 219.818 353.29 220.078 347.768 220.022C343.926 219.924 339.825 219.741 335.563 219.554C331.949 219.367 328.405 218.775 325.113 217.786C324.064 217.446 323.074 217.062 322.137 216.642C320.295 215.816 318.634 214.831 317.144 213.684C316.186 213.024 313.525 210.125 312.186 207.691C311.616 206.662 311.182 205.584 311.031 204.937C311.025 204.915 311.019 204.895 311.015 204.874C311.639 203.837 311.858 202.637 311.687 201.477C311.999 200.515 312.37 199.547 312.844 198.55C313.261 197.673 313.75 196.769 314.332 195.827ZM245.673 111.187C243.139 109.612 239.772 110.322 238.153 112.772C236.289 115.598 234.739 118.429 233.277 121.36C231.966 123.977 233.1 127.135 235.806 128.414C235.836 128.427 235.867 128.441 235.897 128.454C238.587 129.661 241.785 128.569 243.08 125.978C244.43 123.268 245.766 120.84 247.326 118.478C248.946 116.025 248.206 112.764 245.673 111.187ZM258.056 191.785C259.352 192.366 260.88 192.456 262.312 191.917C265.114 190.865 266.496 187.809 265.404 185.091C264.179 182.109 264.628 178.437 266.465 174.56C267.624 172.111 269.309 169.712 271.117 167.734C273.105 165.552 272.891 162.22 270.637 160.289C268.38 158.356 264.941 158.557 262.953 160.736C260.515 163.408 258.261 166.578 256.572 170.124C253.968 175.589 252.627 182.301 255.261 188.905C255.795 190.232 256.821 191.231 258.056 191.785ZM268.194 218.407C268.662 218.86 269.192 219.214 269.76 219.469C271.772 220.371 274.233 220.02 275.891 218.416C278.013 216.357 278.007 213.016 275.88 210.956C274.395 209.492 274.239 208.796 274.187 208.518C274.147 208.237 274.157 207.786 274.682 206.665C275.417 205.021 277.301 202.555 278.929 199.209C278.962 199.133 279.006 199.046 279.052 198.943C280.283 196.287 279.058 193.164 276.316 191.964C273.573 190.763 270.354 191.94 269.121 194.596L269.037 194.773C268.081 196.857 266.302 199.141 264.791 202.229C263.808 204.279 262.945 206.988 263.422 210.051C263.884 213.119 265.634 215.952 268.194 218.407ZM447.062 223.893C447.641 224.722 448.419 225.342 449.291 225.733C450.963 226.483 452.984 226.394 454.622 225.327C457.111 223.705 457.768 220.426 456.082 218.007C455.595 217.282 455.367 216.452 455.573 214.76C455.783 213.118 456.566 210.915 457.663 208.626C459.216 205.339 461.313 201.974 462.834 198.813C464.09 196.17 462.891 193.034 460.157 191.809C457.428 190.585 454.196 191.734 452.94 194.376C451.856 196.686 449.654 200.25 447.771 204.19C446.452 206.986 445.243 210.011 444.777 213.352C444.302 216.643 444.71 220.539 447.062 223.893ZM470.417 234.073L470.484 234.103C473.184 235.313 476.393 234.203 477.674 231.595C479.292 228.304 481.155 225.748 483.331 223.734C485.504 221.725 485.582 218.386 483.504 216.276C481.425 214.165 477.98 214.082 475.81 216.09L475.808 216.086C472.519 219.128 469.91 222.827 467.841 227.039C466.55 229.665 467.704 232.815 470.417 234.073ZM152.826 255.143C152.834 255.003 152.88 254.593 153.055 254.01C153.261 253.279 153.629 252.332 154.102 251.337C154.877 249.699 155.944 247.924 156.981 246.487C157.978 245.062 159.098 243.919 159.32 243.788C161.69 242.001 162.113 238.687 160.263 236.383C158.415 234.082 154.993 233.664 152.622 235.451L152.624 235.448C150.837 236.83 149.482 238.473 148.041 240.438C146.639 242.396 145.301 244.616 144.21 246.902C142.809 250.181 141.379 253.141 142.206 257.427C142.61 259.066 143.762 260.341 145.226 260.998C146.296 261.478 147.534 261.626 148.769 261.343C151.642 260.68 153.431 257.927 152.826 255.143ZM136.499 315.735C134.61 313.466 131.185 313.104 128.844 314.927C121.351 320.741 116.925 327.558 113.214 335.419C111.957 338.064 113.153 341.2 115.886 342.425C118.615 343.649 121.848 342.5 123.105 339.854C126.563 332.641 129.778 327.797 135.686 323.153C138.024 321.326 138.388 318.007 136.499 315.735ZM66.8461 339.206C65.2432 336.738 61.8808 335.995 59.3387 337.546C54.0467 340.802 49.902 344.555 45.9573 346.809C41.9422 349.055 38.7881 350.067 33.6826 349.013C30.7511 348.36 27.8362 350.137 27.1725 352.979C26.5933 355.451 27.9149 357.916 30.2015 358.942C30.5422 359.094 30.9034 359.216 31.284 359.298C39.3589 361.168 46.3691 358.983 51.5787 355.862C56.8576 352.753 61.002 348.97 65.1526 346.48C67.694 344.93 68.4516 341.676 66.8461 339.206ZM245.721 366.543C236.555 359.354 231.779 352.127 228.182 341.167C226.448 335.73 224.025 331.592 220.713 328.528C217.404 325.459 213.666 323.661 209.633 321.843C208.025 321.125 206.349 320.4 204.562 319.596C201.831 318.371 198.597 319.523 197.34 322.167C196.084 324.811 197.279 327.948 200.011 329.173C201.886 330.009 203.575 330.74 205.083 331.416C208.939 333.138 211.432 334.48 213.173 336.12C214.912 337.765 216.357 339.908 217.793 344.293C221.739 356.693 228.184 366.496 238.925 374.767C239.28 375.041 239.656 375.265 240.05 375.441C242.269 376.436 244.98 375.886 246.574 373.96C248.451 371.687 248.067 368.368 245.721 366.543ZM343.391 294.851C341.661 292.466 338.268 291.88 335.809 293.552C334.325 294.534 332.935 294.87 331.16 294.842C329.405 294.799 327.318 294.25 325.228 293.306C323.946 292.734 322.676 292.028 321.495 291.267C315.199 287.198 309.549 283.413 301.82 279.948C299.088 278.723 295.854 279.874 294.597 282.519C293.341 285.162 294.536 288.3 297.268 289.524C304.06 292.57 309.06 295.894 315.47 300.038C317.073 301.073 318.814 302.045 320.678 302.881C323.74 304.247 327.162 305.276 330.872 305.388C334.561 305.511 338.585 304.583 342.068 302.198C344.527 300.527 345.118 297.241 343.391 294.851ZM413.584 249.022C412.863 251.549 414.167 254.162 416.552 255.232C416.815 255.35 417.09 255.448 417.378 255.527L417.376 255.524C421.919 256.557 425.161 255.045 428.149 253.715C431.103 252.268 433.66 250.493 435.453 249.044C437.752 247.176 438.05 243.849 436.117 241.615C434.182 239.38 430.75 239.084 428.447 240.952C427.292 241.9 425.164 243.359 423.238 244.289C422.279 244.759 421.365 245.093 420.76 245.23C420.456 245.304 420.235 245.326 420.146 245.327C420.142 245.327 420.139 245.327 420.139 245.327C417.289 244.635 414.372 246.261 413.584 249.022ZM333.91 197.235C334.467 197.939 335.17 198.471 335.948 198.82C337.725 199.617 339.884 199.457 341.543 198.228C345.262 195.403 347.42 192.381 349.24 190.931C351.503 189.021 351.735 185.688 349.758 183.489C347.781 181.289 344.343 181.053 342.08 182.966C338.919 185.71 336.989 188.367 334.915 189.838C332.529 191.605 332.08 194.915 333.91 197.235ZM368.998 190.448C366.2 192.298 363.282 194.554 360.726 197.435C358.768 199.642 359.032 202.974 361.318 204.878C361.71 205.207 362.136 205.469 362.584 205.67C364.739 206.637 367.372 206.151 368.994 204.321C370.697 202.397 372.859 200.679 375.144 199.174C377.624 197.533 378.261 194.254 376.565 191.848C374.868 189.436 371.48 188.809 368.998 190.448ZM367.029 180.735C367.61 181.816 368.52 182.62 369.578 183.095C371.055 183.758 372.819 183.777 374.371 182.997C377.09 181.632 379.478 179.715 381.384 177.384C383.247 175.103 382.846 171.786 380.486 169.972C378.128 168.161 374.706 168.538 372.841 170.822L372.843 170.819C371.863 172.013 370.709 172.938 369.341 173.624C366.675 174.964 365.639 178.146 367.029 180.735ZM201.331 263.357C202.5 263.881 203.864 264.009 205.192 263.619C207.727 262.887 210.029 261.503 211.82 259.685C213.901 257.585 213.825 254.245 211.655 252.227C209.484 250.206 206.037 250.268 203.961 252.366L203.957 252.365C203.367 252.946 202.825 253.272 202.016 253.517C199.139 254.358 197.519 257.306 198.399 260.093C198.869 261.595 199.969 262.744 201.331 263.357ZM226.148 252.841C226.529 254.518 227.697 255.833 229.192 256.504C230.232 256.97 231.433 257.125 232.638 256.872C235.56 256.344 238.206 254.106 239.243 251.699C239.675 250.79 239.952 249.876 240.122 248.971C240.676 246.109 238.727 243.349 235.772 242.807C232.887 242.279 230.112 244.056 229.466 246.804C227.017 247.73 225.563 250.27 226.148 252.841ZM160.386 178.026C161.656 178.595 163.151 178.695 164.563 178.19C166.408 177.524 168.332 176.628 170.259 175.582C172.876 174.151 173.799 170.936 172.319 168.397C170.839 165.857 167.52 164.954 164.903 166.38C163.399 167.203 161.89 167.889 160.762 168.293C157.945 169.302 156.51 172.335 157.559 175.068C158.081 176.43 159.123 177.46 160.386 178.026ZM74.2964 280.379C74.8775 281.431 75.7749 282.217 76.8123 282.682C78.3105 283.354 80.1036 283.36 81.6663 282.551C85.1303 280.77 87.7955 278.007 89.5885 274.863C91.0496 272.321 90.1094 269.106 87.4808 267.683C84.8535 266.257 81.5409 267.164 80.0764 269.709L80.0776 269.706C79.0797 271.406 78.0026 272.454 76.5147 273.24C73.8676 274.611 72.8715 277.808 74.2964 280.379Z" fill="#191919"/>
</svg>
