<svg width="35" height="35" viewBox="0 0 35 35" fill="none" xmlns="http://www.w3.org/2000/svg">
<path d="M17.5 24.5L24.5 17.5L17.5 10.5L15.05 12.95L17.85 15.75H10.5V19.25H17.85L15.05 22.05L17.5 24.5ZM17.5 35C15.0792 35 12.8042 34.5406 10.675 33.6219C8.54583 32.7031 6.69375 31.4563 5.11875 29.8813C3.54375 28.3063 2.29688 26.4542 1.37813 24.325C0.459375 22.1958 0 19.9208 0 17.5C0 15.0792 0.459375 12.8042 1.37813 10.675C2.29688 8.54583 3.54375 6.69375 5.11875 5.11875C6.69375 3.54375 8.54583 2.29688 10.675 1.37813C12.8042 0.459375 15.0792 0 17.5 0C19.9208 0 22.1958 0.459375 24.325 1.37813C26.4542 2.29688 28.3063 3.54375 29.8813 5.11875C31.4563 6.69375 32.7031 8.54583 33.6219 10.675C34.5406 12.8042 35 15.0792 35 17.5C35 19.9208 34.5406 22.1958 33.6219 24.325C32.7031 26.4542 31.4563 28.3063 29.8813 29.8813C28.3063 31.4563 26.4542 32.7031 24.325 33.6219C22.1958 34.5406 19.9208 35 17.5 35ZM17.5 31.5C21.4083 31.5 24.7188 30.1438 27.4312 27.4312C30.1438 24.7188 31.5 21.4083 31.5 17.5C31.5 13.5917 30.1438 10.2813 27.4312 7.56875C24.7188 4.85625 21.4083 3.5 17.5 3.5C13.5917 3.5 10.2813 4.85625 7.56875 7.56875C4.85625 10.2813 3.5 13.5917 3.5 17.5C3.5 21.4083 4.85625 24.7188 7.56875 27.4312C10.2813 30.1438 13.5917 31.5 17.5 31.5Z" fill="#FFB014"/>
</svg>
